M48
;DRILL file {KiCad 4.0.7-e2-6376~58~ubuntu16.04.1} date Thu Feb  1 11:17:19 2018
;FORMAT={-:-/ absolute / metric / decimal}
FMAT,2
METRIC,TZ
T1C0.400
T2C0.800
T3C0.900
T4C1.000
T5C1.100
T6C1.200
%
G90
G05
M71
T1
X129.54Y-76.454
X159.512Y-50.038
T2
X118.11Y-57.15
X118.11Y-60.325
X125.73Y-57.15
X125.73Y-60.325
X126.492Y-65.786
X126.492Y-68.961
X126.873Y-71.882
X129.58Y-48.895
X129.58Y-55.88
X131.873Y-71.882
X132.08Y-48.895
X132.08Y-55.88
X134.112Y-65.786
X134.112Y-68.961
X136.144Y-53.086
X139.7Y-62.23
X139.7Y-69.85
X141.144Y-53.086
X142.24Y-62.23
X142.24Y-69.85
X144.78Y-62.23
X144.78Y-69.85
X147.32Y-62.23
X147.32Y-69.85
X148.282Y-57.658
X148.59Y-53.467
X149.86Y-62.23
X149.86Y-69.85
X150.722Y-57.658
X152.4Y-62.23
X152.4Y-69.85
X152.4Y-72.517
X152.4Y-75.184
X153.162Y-57.658
X153.59Y-53.467
X154.94Y-62.23
X154.94Y-69.85
X157.4Y-72.517
X157.4Y-75.184
X157.48Y-62.23
X157.48Y-69.85
X157.861Y-59.436
X157.988Y-51.896
X157.988Y-56.896
X160.02Y-62.23
X160.02Y-69.85
X162.56Y-62.23
X162.56Y-69.85
X162.861Y-59.436
X165.1Y-62.23
X165.1Y-69.85
X167.64Y-62.23
X167.64Y-69.85
X170.18Y-62.23
X170.18Y-69.85
X172.72Y-62.23
X172.72Y-69.85
X174.625Y-43.942
X174.625Y-51.562
T3
X111.76Y-55.245
X111.76Y-59.69
X114.3Y-55.245
X114.3Y-59.69
T4
X114.3Y-63.5
X114.3Y-66.04
X114.3Y-68.58
X114.3Y-71.12
X114.3Y-73.66
X114.3Y-76.2
X119.38Y-40.64
X119.38Y-81.28
X121.92Y-40.64
X121.92Y-81.28
X122.809Y-66.04
X122.809Y-68.58
X122.809Y-71.12
X122.809Y-73.66
X124.46Y-40.64
X124.46Y-81.28
X127.Y-40.64
X127.Y-81.28
X128.905Y-62.23
X129.54Y-40.64
X129.54Y-81.28
X131.445Y-62.23
X132.08Y-40.64
X132.08Y-81.28
X133.985Y-62.23
X134.62Y-40.64
X134.62Y-81.28
X137.16Y-40.64
X137.16Y-81.28
X157.48Y-40.64
X157.48Y-81.28
X160.02Y-40.64
X160.02Y-81.28
X162.56Y-40.64
X162.56Y-81.28
X165.1Y-40.64
X165.1Y-81.28
X167.64Y-40.64
X167.64Y-81.28
X170.18Y-40.64
X170.18Y-81.28
X172.72Y-40.64
X172.72Y-81.28
X175.26Y-40.64
X175.26Y-81.28
X178.816Y-45.72
X178.816Y-48.26
X178.816Y-50.8
X181.356Y-45.72
X181.356Y-48.26
X181.356Y-50.8
T5
X136.144Y-45.974
X136.144Y-48.26
X136.144Y-50.546
T6
X176.38Y-57.15
X182.88Y-57.15
T4
X114.65Y-47.26G85X114.65Y-49.26
G05
X116.65Y-52.96G85X118.65Y-52.96
G05
X120.65Y-47.26G85X120.65Y-49.26
G05
T0
M30
