G04 #@! TF.FileFunction,Copper,L2,Bot,Signal*
%FSLAX46Y46*%
G04 Gerber Fmt 4.6, Leading zero omitted, Abs format (unit mm)*
G04 Created by KiCad (PCBNEW 4.0.7-e2-6376~58~ubuntu16.04.1) date Tue Feb  6 21:40:40 2018*
%MOMM*%
%LPD*%
G01*
G04 APERTURE LIST*
%ADD10C,0.100000*%
%ADD11C,3.700000*%
%ADD12C,1.600000*%
%ADD13R,1.800000X1.800000*%
%ADD14C,1.800000*%
%ADD15R,3.500000X3.500000*%
%ADD16R,1.700000X1.700000*%
%ADD17O,1.700000X1.700000*%
%ADD18O,1.600000X1.600000*%
%ADD19R,1.800000X1.714500*%
%ADD20O,1.800000X1.714500*%
%ADD21R,1.600000X1.600000*%
%ADD22R,1.270000X0.970000*%
%ADD23C,2.100000*%
%ADD24C,1.500000*%
%ADD25C,0.600000*%
%ADD26C,0.300000*%
%ADD27C,0.500000*%
%ADD28C,0.254000*%
G04 APERTURE END LIST*
D10*
D11*
X180340000Y-40640000D03*
X180340000Y-81280000D03*
X114300000Y-81280000D03*
D12*
X136144000Y-53086000D03*
X141144000Y-53086000D03*
X152400000Y-75184000D03*
X157400000Y-75184000D03*
X157988000Y-56896000D03*
X157988000Y-51896000D03*
X148590000Y-53467000D03*
X153590000Y-53467000D03*
X126873000Y-71882000D03*
X131873000Y-71882000D03*
X152400000Y-72517000D03*
X157400000Y-72517000D03*
D13*
X111760000Y-55245000D03*
D14*
X114300000Y-55245000D03*
D15*
X120650000Y-48260000D03*
X114650000Y-48260000D03*
X117650000Y-52960000D03*
D16*
X128905000Y-62230000D03*
D17*
X131445000Y-62230000D03*
X133985000Y-62230000D03*
D12*
X125730000Y-57150000D03*
D18*
X118110000Y-57150000D03*
D12*
X125730000Y-60325000D03*
D18*
X118110000Y-60325000D03*
D19*
X136144000Y-45974000D03*
D20*
X136144000Y-48260000D03*
X136144000Y-50546000D03*
D21*
X172720000Y-62230000D03*
D18*
X139700000Y-69850000D03*
X170180000Y-62230000D03*
X142240000Y-69850000D03*
X167640000Y-62230000D03*
X144780000Y-69850000D03*
X165100000Y-62230000D03*
X147320000Y-69850000D03*
X162560000Y-62230000D03*
X149860000Y-69850000D03*
X160020000Y-62230000D03*
X152400000Y-69850000D03*
X157480000Y-62230000D03*
X154940000Y-69850000D03*
X154940000Y-62230000D03*
X157480000Y-69850000D03*
X152400000Y-62230000D03*
X160020000Y-69850000D03*
X149860000Y-62230000D03*
X162560000Y-69850000D03*
X147320000Y-62230000D03*
X165100000Y-69850000D03*
X144780000Y-62230000D03*
X167640000Y-69850000D03*
X142240000Y-62230000D03*
X170180000Y-69850000D03*
X139700000Y-62230000D03*
X172720000Y-69850000D03*
D12*
X157861000Y-59436000D03*
X162861000Y-59436000D03*
D16*
X175260000Y-40640000D03*
D17*
X172720000Y-40640000D03*
X170180000Y-40640000D03*
X167640000Y-40640000D03*
X165100000Y-40640000D03*
X162560000Y-40640000D03*
X160020000Y-40640000D03*
X157480000Y-40640000D03*
D16*
X137160000Y-40640000D03*
D17*
X134620000Y-40640000D03*
X132080000Y-40640000D03*
X129540000Y-40640000D03*
X127000000Y-40640000D03*
X124460000Y-40640000D03*
X121920000Y-40640000D03*
X119380000Y-40640000D03*
D16*
X119380000Y-81280000D03*
D17*
X121920000Y-81280000D03*
X124460000Y-81280000D03*
X127000000Y-81280000D03*
X129540000Y-81280000D03*
X132080000Y-81280000D03*
X134620000Y-81280000D03*
X137160000Y-81280000D03*
D16*
X157480000Y-81280000D03*
D17*
X160020000Y-81280000D03*
X162560000Y-81280000D03*
X165100000Y-81280000D03*
X167640000Y-81280000D03*
X170180000Y-81280000D03*
X172720000Y-81280000D03*
X175260000Y-81280000D03*
D16*
X178816000Y-45720000D03*
D17*
X181356000Y-45720000D03*
X178816000Y-48260000D03*
X181356000Y-48260000D03*
X178816000Y-50800000D03*
X181356000Y-50800000D03*
D13*
X111760000Y-59690000D03*
D14*
X114300000Y-59690000D03*
D22*
X132080000Y-75687000D03*
X132080000Y-76967000D03*
X156083000Y-66416000D03*
X156083000Y-67696000D03*
D16*
X114300000Y-76200000D03*
D17*
X114300000Y-73660000D03*
X114300000Y-71120000D03*
X114300000Y-68580000D03*
X114300000Y-66040000D03*
X114300000Y-63500000D03*
D16*
X122809000Y-66040000D03*
D17*
X122809000Y-68580000D03*
X122809000Y-71120000D03*
X122809000Y-73660000D03*
D12*
X174625000Y-43942000D03*
D18*
X174625000Y-51562000D03*
D12*
X134112000Y-68961000D03*
D18*
X126492000Y-68961000D03*
D12*
X134112000Y-65786000D03*
D18*
X126492000Y-65786000D03*
D21*
X132080000Y-48895000D03*
D12*
X129580000Y-48895000D03*
D21*
X132080000Y-55880000D03*
D12*
X129580000Y-55880000D03*
D11*
X114427000Y-40894000D03*
D23*
X182880000Y-57150000D03*
X176380000Y-57150000D03*
D24*
X150722000Y-57658000D03*
X153162000Y-57658000D03*
X148282000Y-57658000D03*
D25*
X129540000Y-76454000D03*
X159512000Y-50038000D03*
D26*
X129580000Y-47625000D02*
X129580000Y-47712000D01*
D27*
X132080000Y-76967000D02*
X137028000Y-76967000D01*
X138684000Y-75311000D02*
X150749000Y-75311000D01*
X137028000Y-76967000D02*
X138684000Y-75311000D01*
X132080000Y-76967000D02*
X132080000Y-81280000D01*
X152400000Y-69850000D02*
X152019000Y-69850000D01*
X152019000Y-69850000D02*
X150749000Y-71120000D01*
X150749000Y-71120000D02*
X150749000Y-75311000D01*
X150749000Y-75311000D02*
X152273000Y-75311000D01*
X152273000Y-75311000D02*
X152400000Y-75184000D01*
X132080000Y-81280000D02*
X132080000Y-80899000D01*
X152400000Y-69850000D02*
X152527000Y-69850000D01*
D26*
X174625000Y-51562000D02*
X174625000Y-51435000D01*
X175260000Y-50800000D02*
X178816000Y-50800000D01*
X174625000Y-51435000D02*
X175260000Y-50800000D01*
X131492000Y-71755000D02*
X131492000Y-71073000D01*
X142240000Y-62230000D02*
X142240000Y-62103000D01*
X121920000Y-40640000D02*
X121920000Y-40767000D01*
X127254000Y-61976000D02*
X127254000Y-62992000D01*
X129032000Y-64770000D02*
X129032000Y-66675000D01*
X127254000Y-62992000D02*
X129032000Y-64770000D01*
X129032000Y-71120000D02*
X129032000Y-75946000D01*
X129032000Y-66675000D02*
X129032000Y-71120000D01*
X127254000Y-61849000D02*
X127254000Y-61976000D01*
X125730000Y-60325000D02*
X127254000Y-61849000D01*
X129032000Y-75946000D02*
X129540000Y-76454000D01*
X183070500Y-43370500D02*
X183070500Y-50800000D01*
X183007000Y-50927000D02*
X183007000Y-50800000D01*
X183007000Y-50863500D02*
X183007000Y-50927000D01*
X183070500Y-50800000D02*
X183007000Y-50863500D01*
X181356000Y-50800000D02*
X181356000Y-55626000D01*
X181356000Y-55626000D02*
X182880000Y-57150000D01*
X183070500Y-43370500D02*
X182626000Y-42926000D01*
X176276000Y-42926000D02*
X175768000Y-42418000D01*
X182626000Y-42926000D02*
X176276000Y-42926000D01*
X156083000Y-66416000D02*
X155199000Y-66416000D01*
X154940000Y-66157000D02*
X154940000Y-62230000D01*
X155199000Y-66416000D02*
X154940000Y-66157000D01*
X172720000Y-81280000D02*
X172720000Y-83820000D01*
X182880000Y-83820000D02*
X182880000Y-78740000D01*
X182245000Y-84455000D02*
X182880000Y-83820000D01*
X173355000Y-84455000D02*
X182245000Y-84455000D01*
X172720000Y-83820000D02*
X173355000Y-84455000D01*
X175260000Y-40640000D02*
X175260000Y-41910000D01*
X175260000Y-41910000D02*
X175768000Y-42418000D01*
X181229000Y-50927000D02*
X181356000Y-50800000D01*
X137160000Y-40640000D02*
X137160000Y-43815000D01*
X137795000Y-44450000D02*
X137795000Y-48895000D01*
X137160000Y-43815000D02*
X137795000Y-44450000D01*
X182880000Y-57150000D02*
X180340000Y-59690000D01*
X180340000Y-59690000D02*
X180340000Y-62230000D01*
X180340000Y-62230000D02*
X180975000Y-62865000D01*
X180975000Y-62865000D02*
X180975000Y-76835000D01*
X180975000Y-76835000D02*
X182880000Y-78740000D01*
X162861000Y-59436000D02*
X162861000Y-59389000D01*
X162861000Y-59389000D02*
X163830000Y-58420000D01*
X172720000Y-59690000D02*
X180340000Y-59690000D01*
X171450000Y-58420000D02*
X172720000Y-59690000D01*
X163830000Y-58420000D02*
X171450000Y-58420000D01*
X162861000Y-59436000D02*
X162861000Y-59356000D01*
X162861000Y-59356000D02*
X161925000Y-58420000D01*
X161925000Y-58420000D02*
X161925000Y-53467000D01*
X136144000Y-48260000D02*
X137160000Y-48260000D01*
X137160000Y-48260000D02*
X137795000Y-48895000D01*
X139446000Y-53086000D02*
X141144000Y-53086000D01*
X137795000Y-48895000D02*
X139065000Y-50165000D01*
X139065000Y-50165000D02*
X139065000Y-52705000D01*
X139065000Y-52705000D02*
X139446000Y-53086000D01*
X128270000Y-53340000D02*
X132080000Y-53340000D01*
X134620000Y-48260000D02*
X136144000Y-48260000D01*
X134620000Y-50800000D02*
X134620000Y-48260000D01*
X132080000Y-53340000D02*
X134620000Y-50800000D01*
X141144000Y-53086000D02*
X141224000Y-53086000D01*
X117650000Y-52960000D02*
X128270000Y-52960000D01*
X128270000Y-52960000D02*
X128270000Y-52705000D01*
X129580000Y-48895000D02*
X129540000Y-48895000D01*
X129540000Y-48895000D02*
X128270000Y-50165000D01*
X128270000Y-50165000D02*
X128270000Y-52705000D01*
X128270000Y-54570000D02*
X129580000Y-55880000D01*
X128270000Y-52705000D02*
X128270000Y-53340000D01*
X128270000Y-53340000D02*
X128270000Y-54570000D01*
X111760000Y-55245000D02*
X111760000Y-53340000D01*
X112140000Y-52960000D02*
X117650000Y-52960000D01*
X111760000Y-53340000D02*
X112140000Y-52960000D01*
X114650000Y-48260000D02*
X114650000Y-52420000D01*
X114650000Y-52420000D02*
X115190000Y-52960000D01*
X115190000Y-52960000D02*
X117650000Y-52960000D01*
X114300000Y-47910000D02*
X114650000Y-48260000D01*
X111760000Y-59690000D02*
X111760000Y-75565000D01*
X112395000Y-76200000D02*
X114300000Y-76200000D01*
X111760000Y-75565000D02*
X112395000Y-76200000D01*
X111760000Y-55245000D02*
X111760000Y-59690000D01*
X129580000Y-55880000D02*
X129580000Y-55920000D01*
X153590000Y-53467000D02*
X153924000Y-53467000D01*
X153924000Y-53467000D02*
X155575000Y-55118000D01*
X157988000Y-51896000D02*
X158195000Y-51896000D01*
X158195000Y-51896000D02*
X159766000Y-53467000D01*
X153590000Y-53467000D02*
X153670000Y-53467000D01*
X153670000Y-53467000D02*
X154305000Y-52832000D01*
X157052000Y-52832000D02*
X157988000Y-51896000D01*
X154305000Y-52832000D02*
X157052000Y-52832000D01*
X150722000Y-57658000D02*
X151003000Y-57658000D01*
X151003000Y-57658000D02*
X152146000Y-56515000D01*
X152146000Y-54911000D02*
X153590000Y-53467000D01*
X152146000Y-56515000D02*
X152146000Y-54911000D01*
X154940000Y-62230000D02*
X154940000Y-58547000D01*
X155575000Y-57912000D02*
X155575000Y-55118000D01*
X154940000Y-58547000D02*
X155575000Y-57912000D01*
X159766000Y-53467000D02*
X161925000Y-53467000D01*
X156713000Y-66670000D02*
X156083000Y-66543000D01*
X156083000Y-66040000D02*
X156713000Y-66670000D01*
X172720000Y-81280000D02*
X172720000Y-81153000D01*
X183007000Y-50800000D02*
X181356000Y-50800000D01*
X137160000Y-40640000D02*
X137160000Y-37973000D01*
X137160000Y-37973000D02*
X137414000Y-37719000D01*
X175260000Y-37973000D02*
X175260000Y-40640000D01*
X137414000Y-37719000D02*
X175006000Y-37719000D01*
X175006000Y-37719000D02*
X175260000Y-37973000D01*
X114300000Y-76200000D02*
X114300000Y-73660000D01*
X114300000Y-73660000D02*
X116205000Y-73660000D01*
X118745000Y-71120000D02*
X122174000Y-71120000D01*
X118110000Y-71755000D02*
X118745000Y-71120000D01*
X116205000Y-73660000D02*
X118110000Y-71755000D01*
X156083000Y-67696000D02*
X156977000Y-67696000D01*
X157480000Y-68199000D02*
X157480000Y-69850000D01*
X156977000Y-67696000D02*
X157480000Y-68199000D01*
X157480000Y-69850000D02*
X158750000Y-71120000D01*
X158750000Y-71167000D02*
X157400000Y-72517000D01*
X158750000Y-71120000D02*
X158750000Y-71167000D01*
X157400000Y-75184000D02*
X157400000Y-75010000D01*
X157400000Y-75010000D02*
X158750000Y-73660000D01*
X157400000Y-72517000D02*
X157607000Y-72517000D01*
X157607000Y-72517000D02*
X158750000Y-73660000D01*
X158750000Y-73660000D02*
X158750000Y-76835000D01*
X158750000Y-76835000D02*
X154305000Y-81280000D01*
X154305000Y-81280000D02*
X151130000Y-81280000D01*
X137160000Y-81280000D02*
X151130000Y-81280000D01*
X157480000Y-75104000D02*
X157400000Y-75184000D01*
D27*
X181356000Y-45720000D02*
X181356000Y-44323000D01*
X180975000Y-43942000D02*
X178054000Y-43942000D01*
X181356000Y-44323000D02*
X180975000Y-43942000D01*
X177165000Y-43942000D02*
X175768000Y-43942000D01*
X178054000Y-43942000D02*
X177165000Y-43942000D01*
X175768000Y-43942000D02*
X174625000Y-43942000D01*
X157480000Y-63881000D02*
X157480000Y-66040000D01*
X157988000Y-66548000D02*
X160401000Y-66548000D01*
X157480000Y-66040000D02*
X157988000Y-66548000D01*
X175260000Y-66548000D02*
X176022000Y-67310000D01*
X160401000Y-66548000D02*
X175260000Y-66548000D01*
X157480000Y-63881000D02*
X157480000Y-62230000D01*
X176022000Y-67310000D02*
X176022000Y-80518000D01*
X176022000Y-80518000D02*
X175260000Y-81280000D01*
X176022000Y-80518000D02*
X175260000Y-81280000D01*
X132080000Y-75687000D02*
X130180000Y-75687000D01*
X130048000Y-63627000D02*
X131445000Y-62230000D01*
X130048000Y-75555000D02*
X130048000Y-63627000D01*
X130180000Y-75687000D02*
X130048000Y-75555000D01*
X136652000Y-60198000D02*
X136906000Y-60198000D01*
X136906000Y-60198000D02*
X148336000Y-48768000D01*
X158242000Y-48768000D02*
X159512000Y-50038000D01*
X148336000Y-48768000D02*
X158242000Y-48768000D01*
X131445000Y-62230000D02*
X131445000Y-60452000D01*
X131699000Y-60579000D02*
X131699000Y-60452000D01*
X131572000Y-60579000D02*
X131699000Y-60579000D01*
X131445000Y-60452000D02*
X131572000Y-60579000D01*
X136652000Y-60198000D02*
X136398000Y-60452000D01*
X136398000Y-60452000D02*
X131699000Y-60452000D01*
X131699000Y-60452000D02*
X130048000Y-60452000D01*
X125730000Y-57150000D02*
X125730000Y-58039000D01*
X125730000Y-58039000D02*
X128143000Y-60452000D01*
X128143000Y-60452000D02*
X130048000Y-60452000D01*
X131445000Y-61468000D02*
X131445000Y-62230000D01*
X131445000Y-62230000D02*
X131445000Y-62484000D01*
D26*
X131445000Y-61595000D02*
X131445000Y-62230000D01*
D28*
G36*
X154971750Y-67569000D02*
X155956000Y-67569000D01*
X155956000Y-67564000D01*
X156210000Y-67564000D01*
X156210000Y-67569000D01*
X157194250Y-67569000D01*
X157199250Y-67564000D01*
X174699394Y-67564000D01*
X175133000Y-67997606D01*
X175133000Y-77671394D01*
X173556394Y-79248000D01*
X172085000Y-79248000D01*
X172035590Y-79258006D01*
X171995197Y-79285197D01*
X171360197Y-79920197D01*
X171332334Y-79962211D01*
X171323000Y-80010000D01*
X171323000Y-80339957D01*
X171230054Y-80200853D01*
X170748285Y-79878946D01*
X170180000Y-79765907D01*
X169611715Y-79878946D01*
X169129946Y-80200853D01*
X168910000Y-80530026D01*
X168690054Y-80200853D01*
X168208285Y-79878946D01*
X167640000Y-79765907D01*
X167071715Y-79878946D01*
X166589946Y-80200853D01*
X166370000Y-80530026D01*
X166150054Y-80200853D01*
X165668285Y-79878946D01*
X165100000Y-79765907D01*
X164531715Y-79878946D01*
X164049946Y-80200853D01*
X163830000Y-80530026D01*
X163610054Y-80200853D01*
X163128285Y-79878946D01*
X162560000Y-79765907D01*
X161991715Y-79878946D01*
X161509946Y-80200853D01*
X161290000Y-80530026D01*
X161070054Y-80200853D01*
X160588285Y-79878946D01*
X160020000Y-79765907D01*
X159451715Y-79878946D01*
X158969946Y-80200853D01*
X158942150Y-80242452D01*
X158933162Y-80194683D01*
X158794090Y-79978559D01*
X158581890Y-79833569D01*
X158330000Y-79782560D01*
X156630000Y-79782560D01*
X156394683Y-79826838D01*
X156178559Y-79965910D01*
X156033569Y-80178110D01*
X155982560Y-80430000D01*
X155982560Y-82130000D01*
X156026838Y-82365317D01*
X156165910Y-82581441D01*
X156378110Y-82726431D01*
X156630000Y-82777440D01*
X158330000Y-82777440D01*
X158565317Y-82733162D01*
X158781441Y-82594090D01*
X158926431Y-82381890D01*
X158940086Y-82314459D01*
X158969946Y-82359147D01*
X159451715Y-82681054D01*
X160020000Y-82794093D01*
X160588285Y-82681054D01*
X161070054Y-82359147D01*
X161290000Y-82029974D01*
X161509946Y-82359147D01*
X161991715Y-82681054D01*
X162560000Y-82794093D01*
X163128285Y-82681054D01*
X163610054Y-82359147D01*
X163830000Y-82029974D01*
X164049946Y-82359147D01*
X164531715Y-82681054D01*
X165100000Y-82794093D01*
X165668285Y-82681054D01*
X166150054Y-82359147D01*
X166370000Y-82029974D01*
X166589946Y-82359147D01*
X167071715Y-82681054D01*
X167640000Y-82794093D01*
X168208285Y-82681054D01*
X168690054Y-82359147D01*
X168910000Y-82029974D01*
X169129946Y-82359147D01*
X169611715Y-82681054D01*
X170180000Y-82794093D01*
X170748285Y-82681054D01*
X171230054Y-82359147D01*
X171323000Y-82220043D01*
X171323000Y-84380000D01*
X131572000Y-84380000D01*
X131572000Y-82693045D01*
X132080000Y-82794093D01*
X132648285Y-82681054D01*
X133130054Y-82359147D01*
X133350000Y-82029974D01*
X133569946Y-82359147D01*
X134051715Y-82681054D01*
X134620000Y-82794093D01*
X135188285Y-82681054D01*
X135670054Y-82359147D01*
X135897702Y-82018447D01*
X135964817Y-82161358D01*
X136393076Y-82551645D01*
X136803110Y-82721476D01*
X137033000Y-82600155D01*
X137033000Y-81407000D01*
X137287000Y-81407000D01*
X137287000Y-82600155D01*
X137516890Y-82721476D01*
X137926924Y-82551645D01*
X138355183Y-82161358D01*
X138601486Y-81636892D01*
X138480819Y-81407000D01*
X137287000Y-81407000D01*
X137033000Y-81407000D01*
X137013000Y-81407000D01*
X137013000Y-81153000D01*
X137033000Y-81153000D01*
X137033000Y-79959845D01*
X137287000Y-79959845D01*
X137287000Y-81153000D01*
X138480819Y-81153000D01*
X138601486Y-80923108D01*
X138355183Y-80398642D01*
X137926924Y-80008355D01*
X137516890Y-79838524D01*
X137287000Y-79959845D01*
X137033000Y-79959845D01*
X136803110Y-79838524D01*
X136393076Y-80008355D01*
X135964817Y-80398642D01*
X135897702Y-80541553D01*
X135670054Y-80200853D01*
X135188285Y-79878946D01*
X134620000Y-79765907D01*
X134051715Y-79878946D01*
X133569946Y-80200853D01*
X133350000Y-80530026D01*
X133130054Y-80200853D01*
X132965000Y-80090568D01*
X132965000Y-78045714D01*
X133166441Y-77916090D01*
X133210232Y-77852000D01*
X137027995Y-77852000D01*
X137028000Y-77852001D01*
X137310484Y-77795810D01*
X137366675Y-77784633D01*
X137653790Y-77592790D01*
X139050579Y-76196000D01*
X145393741Y-76196000D01*
X145415000Y-76200000D01*
X145542000Y-76200000D01*
X145561752Y-76196000D01*
X151382608Y-76196000D01*
X151586077Y-76399824D01*
X152113309Y-76618750D01*
X152684187Y-76619248D01*
X153211800Y-76401243D01*
X153421663Y-76191745D01*
X156571861Y-76191745D01*
X156645995Y-76437864D01*
X157183223Y-76630965D01*
X157753454Y-76603778D01*
X158154005Y-76437864D01*
X158228139Y-76191745D01*
X157400000Y-75363605D01*
X156571861Y-76191745D01*
X153421663Y-76191745D01*
X153615824Y-75997923D01*
X153834750Y-75470691D01*
X153835189Y-74967223D01*
X155953035Y-74967223D01*
X155980222Y-75537454D01*
X156146136Y-75938005D01*
X156392255Y-76012139D01*
X157220395Y-75184000D01*
X157579605Y-75184000D01*
X158407745Y-76012139D01*
X158653864Y-75938005D01*
X158846965Y-75400777D01*
X158819778Y-74830546D01*
X158653864Y-74429995D01*
X158407745Y-74355861D01*
X157579605Y-75184000D01*
X157220395Y-75184000D01*
X156392255Y-74355861D01*
X156146136Y-74429995D01*
X155953035Y-74967223D01*
X153835189Y-74967223D01*
X153835248Y-74899813D01*
X153617243Y-74372200D01*
X153213923Y-73968176D01*
X152930482Y-73850481D01*
X153211800Y-73734243D01*
X153421663Y-73524745D01*
X156571861Y-73524745D01*
X156645995Y-73770864D01*
X156851865Y-73844862D01*
X156645995Y-73930136D01*
X156571861Y-74176255D01*
X157400000Y-75004395D01*
X158228139Y-74176255D01*
X158154005Y-73930136D01*
X157948135Y-73856138D01*
X158154005Y-73770864D01*
X158228139Y-73524745D01*
X157400000Y-72696605D01*
X156571861Y-73524745D01*
X153421663Y-73524745D01*
X153615824Y-73330923D01*
X153834750Y-72803691D01*
X153835189Y-72300223D01*
X155953035Y-72300223D01*
X155980222Y-72870454D01*
X156146136Y-73271005D01*
X156392255Y-73345139D01*
X157220395Y-72517000D01*
X157579605Y-72517000D01*
X158407745Y-73345139D01*
X158653864Y-73271005D01*
X158846965Y-72733777D01*
X158819778Y-72163546D01*
X158653864Y-71762995D01*
X158407745Y-71688861D01*
X157579605Y-72517000D01*
X157220395Y-72517000D01*
X156392255Y-71688861D01*
X156146136Y-71762995D01*
X155953035Y-72300223D01*
X153835189Y-72300223D01*
X153835248Y-72232813D01*
X153617243Y-71705200D01*
X153213923Y-71301176D01*
X152960824Y-71196080D01*
X153414698Y-70892811D01*
X153670000Y-70510725D01*
X153925302Y-70892811D01*
X154390849Y-71203880D01*
X154940000Y-71313113D01*
X155489151Y-71203880D01*
X155954698Y-70892811D01*
X156224986Y-70488297D01*
X156327611Y-70705134D01*
X156742577Y-71081041D01*
X156914100Y-71152083D01*
X156645995Y-71263136D01*
X156571861Y-71509255D01*
X157400000Y-72337395D01*
X158228139Y-71509255D01*
X158154005Y-71263136D01*
X157952579Y-71190736D01*
X158217423Y-71081041D01*
X158632389Y-70705134D01*
X158735014Y-70488297D01*
X159005302Y-70892811D01*
X159470849Y-71203880D01*
X160020000Y-71313113D01*
X160569151Y-71203880D01*
X161034698Y-70892811D01*
X161290000Y-70510725D01*
X161545302Y-70892811D01*
X162010849Y-71203880D01*
X162560000Y-71313113D01*
X163109151Y-71203880D01*
X163574698Y-70892811D01*
X163830000Y-70510725D01*
X164085302Y-70892811D01*
X164550849Y-71203880D01*
X165100000Y-71313113D01*
X165649151Y-71203880D01*
X166114698Y-70892811D01*
X166370000Y-70510725D01*
X166625302Y-70892811D01*
X167090849Y-71203880D01*
X167640000Y-71313113D01*
X168189151Y-71203880D01*
X168654698Y-70892811D01*
X168910000Y-70510725D01*
X169165302Y-70892811D01*
X169630849Y-71203880D01*
X170180000Y-71313113D01*
X170729151Y-71203880D01*
X171194698Y-70892811D01*
X171450000Y-70510725D01*
X171705302Y-70892811D01*
X172170849Y-71203880D01*
X172720000Y-71313113D01*
X173269151Y-71203880D01*
X173734698Y-70892811D01*
X174045767Y-70427264D01*
X174155000Y-69878113D01*
X174155000Y-69821887D01*
X174045767Y-69272736D01*
X173734698Y-68807189D01*
X173269151Y-68496120D01*
X172720000Y-68386887D01*
X172170849Y-68496120D01*
X171705302Y-68807189D01*
X171450000Y-69189275D01*
X171194698Y-68807189D01*
X170729151Y-68496120D01*
X170180000Y-68386887D01*
X169630849Y-68496120D01*
X169165302Y-68807189D01*
X168910000Y-69189275D01*
X168654698Y-68807189D01*
X168189151Y-68496120D01*
X167640000Y-68386887D01*
X167090849Y-68496120D01*
X166625302Y-68807189D01*
X166370000Y-69189275D01*
X166114698Y-68807189D01*
X165649151Y-68496120D01*
X165100000Y-68386887D01*
X164550849Y-68496120D01*
X164085302Y-68807189D01*
X163830000Y-69189275D01*
X163574698Y-68807189D01*
X163109151Y-68496120D01*
X162560000Y-68386887D01*
X162010849Y-68496120D01*
X161545302Y-68807189D01*
X161290000Y-69189275D01*
X161034698Y-68807189D01*
X160569151Y-68496120D01*
X160020000Y-68386887D01*
X159470849Y-68496120D01*
X159005302Y-68807189D01*
X158735014Y-69211703D01*
X158632389Y-68994866D01*
X158217423Y-68618959D01*
X157829039Y-68458096D01*
X157607000Y-68580085D01*
X157607000Y-69723000D01*
X157627000Y-69723000D01*
X157627000Y-69977000D01*
X157607000Y-69977000D01*
X157607000Y-69997000D01*
X157353000Y-69997000D01*
X157353000Y-69977000D01*
X157333000Y-69977000D01*
X157333000Y-69723000D01*
X157353000Y-69723000D01*
X157353000Y-68580085D01*
X157260959Y-68529517D01*
X157353000Y-68307310D01*
X157353000Y-67981750D01*
X157194250Y-67823000D01*
X156210000Y-67823000D01*
X156210000Y-68657250D01*
X156368750Y-68816000D01*
X156525062Y-68816000D01*
X156327611Y-68994866D01*
X156224986Y-69211703D01*
X155954698Y-68807189D01*
X155865597Y-68747653D01*
X155956000Y-68657250D01*
X155956000Y-67823000D01*
X154971750Y-67823000D01*
X154813000Y-67981750D01*
X154813000Y-68307310D01*
X154853120Y-68404168D01*
X154390849Y-68496120D01*
X153925302Y-68807189D01*
X153670000Y-69189275D01*
X153414698Y-68807189D01*
X152949151Y-68496120D01*
X152400000Y-68386887D01*
X151914059Y-68483547D01*
X151983896Y-68413710D01*
X152011759Y-68371696D01*
X152021081Y-68322153D01*
X152010393Y-68272885D01*
X152005159Y-68265447D01*
X152706606Y-67564000D01*
X154966750Y-67564000D01*
X154971750Y-67569000D01*
X154971750Y-67569000D01*
G37*
X154971750Y-67569000D02*
X155956000Y-67569000D01*
X155956000Y-67564000D01*
X156210000Y-67564000D01*
X156210000Y-67569000D01*
X157194250Y-67569000D01*
X157199250Y-67564000D01*
X174699394Y-67564000D01*
X175133000Y-67997606D01*
X175133000Y-77671394D01*
X173556394Y-79248000D01*
X172085000Y-79248000D01*
X172035590Y-79258006D01*
X171995197Y-79285197D01*
X171360197Y-79920197D01*
X171332334Y-79962211D01*
X171323000Y-80010000D01*
X171323000Y-80339957D01*
X171230054Y-80200853D01*
X170748285Y-79878946D01*
X170180000Y-79765907D01*
X169611715Y-79878946D01*
X169129946Y-80200853D01*
X168910000Y-80530026D01*
X168690054Y-80200853D01*
X168208285Y-79878946D01*
X167640000Y-79765907D01*
X167071715Y-79878946D01*
X166589946Y-80200853D01*
X166370000Y-80530026D01*
X166150054Y-80200853D01*
X165668285Y-79878946D01*
X165100000Y-79765907D01*
X164531715Y-79878946D01*
X164049946Y-80200853D01*
X163830000Y-80530026D01*
X163610054Y-80200853D01*
X163128285Y-79878946D01*
X162560000Y-79765907D01*
X161991715Y-79878946D01*
X161509946Y-80200853D01*
X161290000Y-80530026D01*
X161070054Y-80200853D01*
X160588285Y-79878946D01*
X160020000Y-79765907D01*
X159451715Y-79878946D01*
X158969946Y-80200853D01*
X158942150Y-80242452D01*
X158933162Y-80194683D01*
X158794090Y-79978559D01*
X158581890Y-79833569D01*
X158330000Y-79782560D01*
X156630000Y-79782560D01*
X156394683Y-79826838D01*
X156178559Y-79965910D01*
X156033569Y-80178110D01*
X155982560Y-80430000D01*
X155982560Y-82130000D01*
X156026838Y-82365317D01*
X156165910Y-82581441D01*
X156378110Y-82726431D01*
X156630000Y-82777440D01*
X158330000Y-82777440D01*
X158565317Y-82733162D01*
X158781441Y-82594090D01*
X158926431Y-82381890D01*
X158940086Y-82314459D01*
X158969946Y-82359147D01*
X159451715Y-82681054D01*
X160020000Y-82794093D01*
X160588285Y-82681054D01*
X161070054Y-82359147D01*
X161290000Y-82029974D01*
X161509946Y-82359147D01*
X161991715Y-82681054D01*
X162560000Y-82794093D01*
X163128285Y-82681054D01*
X163610054Y-82359147D01*
X163830000Y-82029974D01*
X164049946Y-82359147D01*
X164531715Y-82681054D01*
X165100000Y-82794093D01*
X165668285Y-82681054D01*
X166150054Y-82359147D01*
X166370000Y-82029974D01*
X166589946Y-82359147D01*
X167071715Y-82681054D01*
X167640000Y-82794093D01*
X168208285Y-82681054D01*
X168690054Y-82359147D01*
X168910000Y-82029974D01*
X169129946Y-82359147D01*
X169611715Y-82681054D01*
X170180000Y-82794093D01*
X170748285Y-82681054D01*
X171230054Y-82359147D01*
X171323000Y-82220043D01*
X171323000Y-84380000D01*
X131572000Y-84380000D01*
X131572000Y-82693045D01*
X132080000Y-82794093D01*
X132648285Y-82681054D01*
X133130054Y-82359147D01*
X133350000Y-82029974D01*
X133569946Y-82359147D01*
X134051715Y-82681054D01*
X134620000Y-82794093D01*
X135188285Y-82681054D01*
X135670054Y-82359147D01*
X135897702Y-82018447D01*
X135964817Y-82161358D01*
X136393076Y-82551645D01*
X136803110Y-82721476D01*
X137033000Y-82600155D01*
X137033000Y-81407000D01*
X137287000Y-81407000D01*
X137287000Y-82600155D01*
X137516890Y-82721476D01*
X137926924Y-82551645D01*
X138355183Y-82161358D01*
X138601486Y-81636892D01*
X138480819Y-81407000D01*
X137287000Y-81407000D01*
X137033000Y-81407000D01*
X137013000Y-81407000D01*
X137013000Y-81153000D01*
X137033000Y-81153000D01*
X137033000Y-79959845D01*
X137287000Y-79959845D01*
X137287000Y-81153000D01*
X138480819Y-81153000D01*
X138601486Y-80923108D01*
X138355183Y-80398642D01*
X137926924Y-80008355D01*
X137516890Y-79838524D01*
X137287000Y-79959845D01*
X137033000Y-79959845D01*
X136803110Y-79838524D01*
X136393076Y-80008355D01*
X135964817Y-80398642D01*
X135897702Y-80541553D01*
X135670054Y-80200853D01*
X135188285Y-79878946D01*
X134620000Y-79765907D01*
X134051715Y-79878946D01*
X133569946Y-80200853D01*
X133350000Y-80530026D01*
X133130054Y-80200853D01*
X132965000Y-80090568D01*
X132965000Y-78045714D01*
X133166441Y-77916090D01*
X133210232Y-77852000D01*
X137027995Y-77852000D01*
X137028000Y-77852001D01*
X137310484Y-77795810D01*
X137366675Y-77784633D01*
X137653790Y-77592790D01*
X139050579Y-76196000D01*
X145393741Y-76196000D01*
X145415000Y-76200000D01*
X145542000Y-76200000D01*
X145561752Y-76196000D01*
X151382608Y-76196000D01*
X151586077Y-76399824D01*
X152113309Y-76618750D01*
X152684187Y-76619248D01*
X153211800Y-76401243D01*
X153421663Y-76191745D01*
X156571861Y-76191745D01*
X156645995Y-76437864D01*
X157183223Y-76630965D01*
X157753454Y-76603778D01*
X158154005Y-76437864D01*
X158228139Y-76191745D01*
X157400000Y-75363605D01*
X156571861Y-76191745D01*
X153421663Y-76191745D01*
X153615824Y-75997923D01*
X153834750Y-75470691D01*
X153835189Y-74967223D01*
X155953035Y-74967223D01*
X155980222Y-75537454D01*
X156146136Y-75938005D01*
X156392255Y-76012139D01*
X157220395Y-75184000D01*
X157579605Y-75184000D01*
X158407745Y-76012139D01*
X158653864Y-75938005D01*
X158846965Y-75400777D01*
X158819778Y-74830546D01*
X158653864Y-74429995D01*
X158407745Y-74355861D01*
X157579605Y-75184000D01*
X157220395Y-75184000D01*
X156392255Y-74355861D01*
X156146136Y-74429995D01*
X155953035Y-74967223D01*
X153835189Y-74967223D01*
X153835248Y-74899813D01*
X153617243Y-74372200D01*
X153213923Y-73968176D01*
X152930482Y-73850481D01*
X153211800Y-73734243D01*
X153421663Y-73524745D01*
X156571861Y-73524745D01*
X156645995Y-73770864D01*
X156851865Y-73844862D01*
X156645995Y-73930136D01*
X156571861Y-74176255D01*
X157400000Y-75004395D01*
X158228139Y-74176255D01*
X158154005Y-73930136D01*
X157948135Y-73856138D01*
X158154005Y-73770864D01*
X158228139Y-73524745D01*
X157400000Y-72696605D01*
X156571861Y-73524745D01*
X153421663Y-73524745D01*
X153615824Y-73330923D01*
X153834750Y-72803691D01*
X153835189Y-72300223D01*
X155953035Y-72300223D01*
X155980222Y-72870454D01*
X156146136Y-73271005D01*
X156392255Y-73345139D01*
X157220395Y-72517000D01*
X157579605Y-72517000D01*
X158407745Y-73345139D01*
X158653864Y-73271005D01*
X158846965Y-72733777D01*
X158819778Y-72163546D01*
X158653864Y-71762995D01*
X158407745Y-71688861D01*
X157579605Y-72517000D01*
X157220395Y-72517000D01*
X156392255Y-71688861D01*
X156146136Y-71762995D01*
X155953035Y-72300223D01*
X153835189Y-72300223D01*
X153835248Y-72232813D01*
X153617243Y-71705200D01*
X153213923Y-71301176D01*
X152960824Y-71196080D01*
X153414698Y-70892811D01*
X153670000Y-70510725D01*
X153925302Y-70892811D01*
X154390849Y-71203880D01*
X154940000Y-71313113D01*
X155489151Y-71203880D01*
X155954698Y-70892811D01*
X156224986Y-70488297D01*
X156327611Y-70705134D01*
X156742577Y-71081041D01*
X156914100Y-71152083D01*
X156645995Y-71263136D01*
X156571861Y-71509255D01*
X157400000Y-72337395D01*
X158228139Y-71509255D01*
X158154005Y-71263136D01*
X157952579Y-71190736D01*
X158217423Y-71081041D01*
X158632389Y-70705134D01*
X158735014Y-70488297D01*
X159005302Y-70892811D01*
X159470849Y-71203880D01*
X160020000Y-71313113D01*
X160569151Y-71203880D01*
X161034698Y-70892811D01*
X161290000Y-70510725D01*
X161545302Y-70892811D01*
X162010849Y-71203880D01*
X162560000Y-71313113D01*
X163109151Y-71203880D01*
X163574698Y-70892811D01*
X163830000Y-70510725D01*
X164085302Y-70892811D01*
X164550849Y-71203880D01*
X165100000Y-71313113D01*
X165649151Y-71203880D01*
X166114698Y-70892811D01*
X166370000Y-70510725D01*
X166625302Y-70892811D01*
X167090849Y-71203880D01*
X167640000Y-71313113D01*
X168189151Y-71203880D01*
X168654698Y-70892811D01*
X168910000Y-70510725D01*
X169165302Y-70892811D01*
X169630849Y-71203880D01*
X170180000Y-71313113D01*
X170729151Y-71203880D01*
X171194698Y-70892811D01*
X171450000Y-70510725D01*
X171705302Y-70892811D01*
X172170849Y-71203880D01*
X172720000Y-71313113D01*
X173269151Y-71203880D01*
X173734698Y-70892811D01*
X174045767Y-70427264D01*
X174155000Y-69878113D01*
X174155000Y-69821887D01*
X174045767Y-69272736D01*
X173734698Y-68807189D01*
X173269151Y-68496120D01*
X172720000Y-68386887D01*
X172170849Y-68496120D01*
X171705302Y-68807189D01*
X171450000Y-69189275D01*
X171194698Y-68807189D01*
X170729151Y-68496120D01*
X170180000Y-68386887D01*
X169630849Y-68496120D01*
X169165302Y-68807189D01*
X168910000Y-69189275D01*
X168654698Y-68807189D01*
X168189151Y-68496120D01*
X167640000Y-68386887D01*
X167090849Y-68496120D01*
X166625302Y-68807189D01*
X166370000Y-69189275D01*
X166114698Y-68807189D01*
X165649151Y-68496120D01*
X165100000Y-68386887D01*
X164550849Y-68496120D01*
X164085302Y-68807189D01*
X163830000Y-69189275D01*
X163574698Y-68807189D01*
X163109151Y-68496120D01*
X162560000Y-68386887D01*
X162010849Y-68496120D01*
X161545302Y-68807189D01*
X161290000Y-69189275D01*
X161034698Y-68807189D01*
X160569151Y-68496120D01*
X160020000Y-68386887D01*
X159470849Y-68496120D01*
X159005302Y-68807189D01*
X158735014Y-69211703D01*
X158632389Y-68994866D01*
X158217423Y-68618959D01*
X157829039Y-68458096D01*
X157607000Y-68580085D01*
X157607000Y-69723000D01*
X157627000Y-69723000D01*
X157627000Y-69977000D01*
X157607000Y-69977000D01*
X157607000Y-69997000D01*
X157353000Y-69997000D01*
X157353000Y-69977000D01*
X157333000Y-69977000D01*
X157333000Y-69723000D01*
X157353000Y-69723000D01*
X157353000Y-68580085D01*
X157260959Y-68529517D01*
X157353000Y-68307310D01*
X157353000Y-67981750D01*
X157194250Y-67823000D01*
X156210000Y-67823000D01*
X156210000Y-68657250D01*
X156368750Y-68816000D01*
X156525062Y-68816000D01*
X156327611Y-68994866D01*
X156224986Y-69211703D01*
X155954698Y-68807189D01*
X155865597Y-68747653D01*
X155956000Y-68657250D01*
X155956000Y-67823000D01*
X154971750Y-67823000D01*
X154813000Y-67981750D01*
X154813000Y-68307310D01*
X154853120Y-68404168D01*
X154390849Y-68496120D01*
X153925302Y-68807189D01*
X153670000Y-69189275D01*
X153414698Y-68807189D01*
X152949151Y-68496120D01*
X152400000Y-68386887D01*
X151914059Y-68483547D01*
X151983896Y-68413710D01*
X152011759Y-68371696D01*
X152021081Y-68322153D01*
X152010393Y-68272885D01*
X152005159Y-68265447D01*
X152706606Y-67564000D01*
X154966750Y-67564000D01*
X154971750Y-67569000D01*
G36*
X183440000Y-55560448D02*
X183156474Y-55454381D01*
X182486544Y-55477651D01*
X181975687Y-55689255D01*
X181870902Y-55961297D01*
X182880000Y-56970395D01*
X182894143Y-56956253D01*
X183073748Y-57135858D01*
X183059605Y-57150000D01*
X183073748Y-57164143D01*
X182894143Y-57343748D01*
X182880000Y-57329605D01*
X181870902Y-58338703D01*
X181975687Y-58610745D01*
X182603526Y-58845619D01*
X183273456Y-58822349D01*
X183440000Y-58753364D01*
X183440000Y-84380000D01*
X172085000Y-84380000D01*
X172085000Y-82606286D01*
X172363110Y-82721476D01*
X172593000Y-82600155D01*
X172593000Y-81407000D01*
X172573000Y-81407000D01*
X172573000Y-81153000D01*
X172593000Y-81153000D01*
X172593000Y-81133000D01*
X172847000Y-81133000D01*
X172847000Y-81153000D01*
X172867000Y-81153000D01*
X172867000Y-81407000D01*
X172847000Y-81407000D01*
X172847000Y-82600155D01*
X173076890Y-82721476D01*
X173486924Y-82551645D01*
X173915183Y-82161358D01*
X173982298Y-82018447D01*
X174209946Y-82359147D01*
X174691715Y-82681054D01*
X175260000Y-82794093D01*
X175828285Y-82681054D01*
X176310054Y-82359147D01*
X176631961Y-81877378D01*
X176652896Y-81772128D01*
X177854570Y-81772128D01*
X178232091Y-82685800D01*
X178930523Y-83385452D01*
X179843534Y-83764568D01*
X180832128Y-83765430D01*
X181745800Y-83387909D01*
X182445452Y-82689477D01*
X182824568Y-81776466D01*
X182825430Y-80787872D01*
X182447909Y-79874200D01*
X181749477Y-79174548D01*
X180836466Y-78795432D01*
X179847872Y-78794570D01*
X178934200Y-79172091D01*
X178234548Y-79870523D01*
X177855432Y-80783534D01*
X177854570Y-81772128D01*
X176652896Y-81772128D01*
X176745000Y-81309093D01*
X176745000Y-81250907D01*
X176706281Y-81056252D01*
X176839633Y-80856675D01*
X176865841Y-80724921D01*
X176907001Y-80518000D01*
X176907000Y-80517995D01*
X176907000Y-67310005D01*
X176907001Y-67310000D01*
X176839633Y-66971326D01*
X176839633Y-66971325D01*
X176647790Y-66684210D01*
X176647787Y-66684208D01*
X175885790Y-65922210D01*
X175837584Y-65890000D01*
X175598675Y-65730367D01*
X175542484Y-65719190D01*
X175260000Y-65662999D01*
X175259995Y-65663000D01*
X158365000Y-65663000D01*
X158365000Y-63359473D01*
X158494698Y-63272811D01*
X158750000Y-62890725D01*
X159005302Y-63272811D01*
X159470849Y-63583880D01*
X160020000Y-63693113D01*
X160569151Y-63583880D01*
X161034698Y-63272811D01*
X161290000Y-62890725D01*
X161545302Y-63272811D01*
X162010849Y-63583880D01*
X162560000Y-63693113D01*
X163109151Y-63583880D01*
X163574698Y-63272811D01*
X163830000Y-62890725D01*
X164085302Y-63272811D01*
X164550849Y-63583880D01*
X165100000Y-63693113D01*
X165649151Y-63583880D01*
X166114698Y-63272811D01*
X166370000Y-62890725D01*
X166625302Y-63272811D01*
X167090849Y-63583880D01*
X167640000Y-63693113D01*
X168189151Y-63583880D01*
X168654698Y-63272811D01*
X168910000Y-62890725D01*
X169165302Y-63272811D01*
X169630849Y-63583880D01*
X170180000Y-63693113D01*
X170729151Y-63583880D01*
X171194698Y-63272811D01*
X171291101Y-63128535D01*
X171316838Y-63265317D01*
X171455910Y-63481441D01*
X171668110Y-63626431D01*
X171920000Y-63677440D01*
X173520000Y-63677440D01*
X173755317Y-63633162D01*
X173971441Y-63494090D01*
X174116431Y-63281890D01*
X174167440Y-63030000D01*
X174167440Y-61430000D01*
X174123162Y-61194683D01*
X173984090Y-60978559D01*
X173771890Y-60833569D01*
X173520000Y-60782560D01*
X171920000Y-60782560D01*
X171684683Y-60826838D01*
X171468559Y-60965910D01*
X171323569Y-61178110D01*
X171292185Y-61333089D01*
X171194698Y-61187189D01*
X170729151Y-60876120D01*
X170180000Y-60766887D01*
X169630849Y-60876120D01*
X169165302Y-61187189D01*
X168910000Y-61569275D01*
X168654698Y-61187189D01*
X168189151Y-60876120D01*
X167640000Y-60766887D01*
X167090849Y-60876120D01*
X166625302Y-61187189D01*
X166370000Y-61569275D01*
X166114698Y-61187189D01*
X165649151Y-60876120D01*
X165100000Y-60766887D01*
X164550849Y-60876120D01*
X164085302Y-61187189D01*
X163830000Y-61569275D01*
X163574698Y-61187189D01*
X163109151Y-60876120D01*
X163047018Y-60863761D01*
X163214454Y-60855778D01*
X163615005Y-60689864D01*
X163689139Y-60443745D01*
X162861000Y-59615605D01*
X162032861Y-60443745D01*
X162106995Y-60689864D01*
X162406325Y-60797455D01*
X162010849Y-60876120D01*
X161545302Y-61187189D01*
X161290000Y-61569275D01*
X161034698Y-61187189D01*
X160569151Y-60876120D01*
X160020000Y-60766887D01*
X159470849Y-60876120D01*
X159005302Y-61187189D01*
X158750000Y-61569275D01*
X158494698Y-61187189D01*
X158029151Y-60876120D01*
X158004039Y-60871125D01*
X158145187Y-60871248D01*
X158672800Y-60653243D01*
X159076824Y-60249923D01*
X159295750Y-59722691D01*
X159296189Y-59219223D01*
X161414035Y-59219223D01*
X161441222Y-59789454D01*
X161607136Y-60190005D01*
X161853255Y-60264139D01*
X162681395Y-59436000D01*
X163040605Y-59436000D01*
X163868745Y-60264139D01*
X164114864Y-60190005D01*
X164307965Y-59652777D01*
X164280778Y-59082546D01*
X164114864Y-58681995D01*
X163868745Y-58607861D01*
X163040605Y-59436000D01*
X162681395Y-59436000D01*
X161853255Y-58607861D01*
X161607136Y-58681995D01*
X161414035Y-59219223D01*
X159296189Y-59219223D01*
X159296248Y-59151813D01*
X159078243Y-58624200D01*
X158882640Y-58428255D01*
X162032861Y-58428255D01*
X162861000Y-59256395D01*
X163689139Y-58428255D01*
X163615005Y-58182136D01*
X163077777Y-57989035D01*
X162507546Y-58016222D01*
X162106995Y-58182136D01*
X162032861Y-58428255D01*
X158882640Y-58428255D01*
X158674923Y-58220176D01*
X158608128Y-58192440D01*
X158799800Y-58113243D01*
X159203824Y-57709923D01*
X159297761Y-57483697D01*
X174694708Y-57483697D01*
X174950694Y-58103229D01*
X175424278Y-58577640D01*
X176043362Y-58834707D01*
X176713697Y-58835292D01*
X177333229Y-58579306D01*
X177807640Y-58105722D01*
X178064707Y-57486638D01*
X178065242Y-56873526D01*
X181184381Y-56873526D01*
X181207651Y-57543456D01*
X181419255Y-58054313D01*
X181691297Y-58159098D01*
X182700395Y-57150000D01*
X181691297Y-56140902D01*
X181419255Y-56245687D01*
X181184381Y-56873526D01*
X178065242Y-56873526D01*
X178065292Y-56816303D01*
X177809306Y-56196771D01*
X177335722Y-55722360D01*
X176716638Y-55465293D01*
X176046303Y-55464708D01*
X175426771Y-55720694D01*
X174952360Y-56194278D01*
X174695293Y-56813362D01*
X174694708Y-57483697D01*
X159297761Y-57483697D01*
X159422750Y-57182691D01*
X159423248Y-56611813D01*
X159205243Y-56084200D01*
X158801923Y-55680176D01*
X158274691Y-55461250D01*
X157703813Y-55460752D01*
X157176200Y-55678757D01*
X156772176Y-56082077D01*
X156553250Y-56609309D01*
X156552752Y-57180187D01*
X156770757Y-57707800D01*
X157174077Y-58111824D01*
X157240872Y-58139560D01*
X157049200Y-58218757D01*
X156645176Y-58622077D01*
X156426250Y-59149309D01*
X156425752Y-59720187D01*
X156643757Y-60247800D01*
X157047077Y-60651824D01*
X157374647Y-60787843D01*
X156930849Y-60876120D01*
X156465302Y-61187189D01*
X156195014Y-61591703D01*
X156092389Y-61374866D01*
X155677423Y-60998959D01*
X155289039Y-60838096D01*
X155067000Y-60960085D01*
X155067000Y-62103000D01*
X155087000Y-62103000D01*
X155087000Y-62357000D01*
X155067000Y-62357000D01*
X155067000Y-63499915D01*
X155289039Y-63621904D01*
X155677423Y-63461041D01*
X156092389Y-63085134D01*
X156195014Y-62868297D01*
X156465302Y-63272811D01*
X156595000Y-63359473D01*
X156595000Y-65296000D01*
X156368750Y-65296000D01*
X156210000Y-65454750D01*
X156210000Y-66289000D01*
X156230000Y-66289000D01*
X156230000Y-66543000D01*
X156210000Y-66543000D01*
X156210000Y-66563000D01*
X155956000Y-66563000D01*
X155956000Y-66543000D01*
X154971750Y-66543000D01*
X154839750Y-66675000D01*
X152146000Y-66675000D01*
X152096590Y-66685006D01*
X152056197Y-66712197D01*
X150659197Y-68109197D01*
X150631334Y-68151211D01*
X150622000Y-68199000D01*
X150622000Y-68638341D01*
X150409151Y-68496120D01*
X149860000Y-68386887D01*
X149310849Y-68496120D01*
X148845302Y-68807189D01*
X148590000Y-69189275D01*
X148334698Y-68807189D01*
X147869151Y-68496120D01*
X147320000Y-68386887D01*
X146770849Y-68496120D01*
X146305302Y-68807189D01*
X146050000Y-69189275D01*
X145794698Y-68807189D01*
X145329151Y-68496120D01*
X144780000Y-68386887D01*
X144230849Y-68496120D01*
X143765302Y-68807189D01*
X143510000Y-69189275D01*
X143254698Y-68807189D01*
X142789151Y-68496120D01*
X142240000Y-68386887D01*
X141690849Y-68496120D01*
X141225302Y-68807189D01*
X140970000Y-69189275D01*
X140714698Y-68807189D01*
X140249151Y-68496120D01*
X139700000Y-68386887D01*
X139150849Y-68496120D01*
X138685302Y-68807189D01*
X138374233Y-69272736D01*
X138265000Y-69821887D01*
X138265000Y-69878113D01*
X138374233Y-70427264D01*
X138685302Y-70892811D01*
X139150849Y-71203880D01*
X139700000Y-71313113D01*
X140249151Y-71203880D01*
X140714698Y-70892811D01*
X140970000Y-70510725D01*
X141225302Y-70892811D01*
X141690849Y-71203880D01*
X142240000Y-71313113D01*
X142789151Y-71203880D01*
X143254698Y-70892811D01*
X143510000Y-70510725D01*
X143765302Y-70892811D01*
X144230849Y-71203880D01*
X144780000Y-71313113D01*
X145329151Y-71203880D01*
X145794698Y-70892811D01*
X146050000Y-70510725D01*
X146305302Y-70892811D01*
X146770849Y-71203880D01*
X147320000Y-71313113D01*
X147869151Y-71203880D01*
X148334698Y-70892811D01*
X148590000Y-70510725D01*
X148845302Y-70892811D01*
X149310849Y-71203880D01*
X149860000Y-71313113D01*
X149864000Y-71312317D01*
X149864000Y-74019741D01*
X149860000Y-74041000D01*
X149860000Y-74422000D01*
X138430000Y-74422000D01*
X138380590Y-74432006D01*
X138340197Y-74459197D01*
X138226895Y-74572499D01*
X138058210Y-74685210D01*
X138058208Y-74685213D01*
X136670420Y-76073000D01*
X133362440Y-76073000D01*
X133362440Y-75202000D01*
X133318162Y-74966683D01*
X133179090Y-74750559D01*
X132966890Y-74605569D01*
X132715000Y-74554560D01*
X131445000Y-74554560D01*
X131209683Y-74598838D01*
X130993559Y-74737910D01*
X130949768Y-74802000D01*
X130933000Y-74802000D01*
X130933000Y-72971527D01*
X131059077Y-73097824D01*
X131586309Y-73316750D01*
X132157187Y-73317248D01*
X132684800Y-73099243D01*
X133088824Y-72695923D01*
X133307750Y-72168691D01*
X133308248Y-71597813D01*
X133090243Y-71070200D01*
X132686923Y-70666176D01*
X132159691Y-70447250D01*
X131941026Y-70447059D01*
X131792406Y-70347755D01*
X131492000Y-70288000D01*
X131191594Y-70347755D01*
X130936921Y-70517921D01*
X130933000Y-70523789D01*
X130933000Y-69245187D01*
X132676752Y-69245187D01*
X132894757Y-69772800D01*
X133298077Y-70176824D01*
X133825309Y-70395750D01*
X134396187Y-70396248D01*
X134923800Y-70178243D01*
X135327824Y-69774923D01*
X135546750Y-69247691D01*
X135547248Y-68676813D01*
X135329243Y-68149200D01*
X134925923Y-67745176D01*
X134398691Y-67526250D01*
X133827813Y-67525752D01*
X133300200Y-67743757D01*
X132896176Y-68147077D01*
X132677250Y-68674309D01*
X132676752Y-69245187D01*
X130933000Y-69245187D01*
X130933000Y-66070187D01*
X132676752Y-66070187D01*
X132894757Y-66597800D01*
X133298077Y-67001824D01*
X133825309Y-67220750D01*
X134396187Y-67221248D01*
X134923800Y-67003243D01*
X135327824Y-66599923D01*
X135546750Y-66072691D01*
X135546983Y-65804690D01*
X154813000Y-65804690D01*
X154813000Y-66130250D01*
X154971750Y-66289000D01*
X155956000Y-66289000D01*
X155956000Y-65454750D01*
X155797250Y-65296000D01*
X155321691Y-65296000D01*
X155088302Y-65392673D01*
X154909673Y-65571301D01*
X154813000Y-65804690D01*
X135546983Y-65804690D01*
X135547248Y-65501813D01*
X135329243Y-64974200D01*
X134925923Y-64570176D01*
X134398691Y-64351250D01*
X133827813Y-64350752D01*
X133300200Y-64568757D01*
X132896176Y-64972077D01*
X132677250Y-65499309D01*
X132676752Y-66070187D01*
X130933000Y-66070187D01*
X130933000Y-63993580D01*
X131226040Y-63700539D01*
X131445000Y-63744093D01*
X132013285Y-63631054D01*
X132495054Y-63309147D01*
X132715000Y-62979974D01*
X132934946Y-63309147D01*
X133416715Y-63631054D01*
X133985000Y-63744093D01*
X134553285Y-63631054D01*
X135035054Y-63309147D01*
X135356961Y-62827378D01*
X135470000Y-62259093D01*
X135470000Y-62201887D01*
X138265000Y-62201887D01*
X138265000Y-62258113D01*
X138374233Y-62807264D01*
X138685302Y-63272811D01*
X139150849Y-63583880D01*
X139700000Y-63693113D01*
X140249151Y-63583880D01*
X140714698Y-63272811D01*
X140970000Y-62890725D01*
X141225302Y-63272811D01*
X141690849Y-63583880D01*
X142240000Y-63693113D01*
X142789151Y-63583880D01*
X143254698Y-63272811D01*
X143510000Y-62890725D01*
X143765302Y-63272811D01*
X144230849Y-63583880D01*
X144780000Y-63693113D01*
X145329151Y-63583880D01*
X145794698Y-63272811D01*
X146050000Y-62890725D01*
X146305302Y-63272811D01*
X146770849Y-63583880D01*
X147320000Y-63693113D01*
X147869151Y-63583880D01*
X148334698Y-63272811D01*
X148590000Y-62890725D01*
X148845302Y-63272811D01*
X149310849Y-63583880D01*
X149860000Y-63693113D01*
X150409151Y-63583880D01*
X150874698Y-63272811D01*
X151130000Y-62890725D01*
X151385302Y-63272811D01*
X151850849Y-63583880D01*
X152400000Y-63693113D01*
X152949151Y-63583880D01*
X153414698Y-63272811D01*
X153684986Y-62868297D01*
X153787611Y-63085134D01*
X154202577Y-63461041D01*
X154590961Y-63621904D01*
X154813000Y-63499915D01*
X154813000Y-62357000D01*
X154793000Y-62357000D01*
X154793000Y-62103000D01*
X154813000Y-62103000D01*
X154813000Y-60960085D01*
X154590961Y-60838096D01*
X154202577Y-60998959D01*
X153787611Y-61374866D01*
X153684986Y-61591703D01*
X153414698Y-61187189D01*
X152949151Y-60876120D01*
X152400000Y-60766887D01*
X151850849Y-60876120D01*
X151385302Y-61187189D01*
X151130000Y-61569275D01*
X150874698Y-61187189D01*
X150409151Y-60876120D01*
X149860000Y-60766887D01*
X149310849Y-60876120D01*
X148845302Y-61187189D01*
X148590000Y-61569275D01*
X148334698Y-61187189D01*
X147869151Y-60876120D01*
X147320000Y-60766887D01*
X146770849Y-60876120D01*
X146305302Y-61187189D01*
X146050000Y-61569275D01*
X145794698Y-61187189D01*
X145329151Y-60876120D01*
X144780000Y-60766887D01*
X144230849Y-60876120D01*
X143765302Y-61187189D01*
X143510000Y-61569275D01*
X143254698Y-61187189D01*
X142789151Y-60876120D01*
X142240000Y-60766887D01*
X141690849Y-60876120D01*
X141225302Y-61187189D01*
X140970000Y-61569275D01*
X140714698Y-61187189D01*
X140249151Y-60876120D01*
X139700000Y-60766887D01*
X139150849Y-60876120D01*
X138685302Y-61187189D01*
X138374233Y-61652736D01*
X138265000Y-62201887D01*
X135470000Y-62201887D01*
X135470000Y-62200907D01*
X135356961Y-61632622D01*
X135159433Y-61337000D01*
X136397995Y-61337000D01*
X136398000Y-61337001D01*
X136680484Y-61280810D01*
X136736675Y-61269633D01*
X137023790Y-61077790D01*
X137046533Y-61055047D01*
X137188484Y-61026810D01*
X137244675Y-61015633D01*
X137531790Y-60823790D01*
X140423294Y-57932285D01*
X146896760Y-57932285D01*
X147107169Y-58441515D01*
X147496436Y-58831461D01*
X148005298Y-59042759D01*
X148556285Y-59043240D01*
X149065515Y-58832831D01*
X149269183Y-58629517D01*
X149930088Y-58629517D01*
X149998077Y-58870460D01*
X150517171Y-59055201D01*
X151067448Y-59027230D01*
X151445923Y-58870460D01*
X151513912Y-58629517D01*
X150722000Y-57837605D01*
X149930088Y-58629517D01*
X149269183Y-58629517D01*
X149455461Y-58443564D01*
X149495316Y-58347583D01*
X149509540Y-58381923D01*
X149750483Y-58449912D01*
X150542395Y-57658000D01*
X150901605Y-57658000D01*
X151693517Y-58449912D01*
X151934460Y-58381923D01*
X151947457Y-58345404D01*
X151987169Y-58441515D01*
X152376436Y-58831461D01*
X152885298Y-59042759D01*
X153436285Y-59043240D01*
X153945515Y-58832831D01*
X154335461Y-58443564D01*
X154546759Y-57934702D01*
X154547240Y-57383715D01*
X154336831Y-56874485D01*
X153947564Y-56484539D01*
X153438702Y-56273241D01*
X152887715Y-56272760D01*
X152378485Y-56483169D01*
X151988539Y-56872436D01*
X151948684Y-56968417D01*
X151934460Y-56934077D01*
X151693517Y-56866088D01*
X150901605Y-57658000D01*
X150542395Y-57658000D01*
X149750483Y-56866088D01*
X149509540Y-56934077D01*
X149496543Y-56970596D01*
X149456831Y-56874485D01*
X149269157Y-56686483D01*
X149930088Y-56686483D01*
X150722000Y-57478395D01*
X151513912Y-56686483D01*
X151445923Y-56445540D01*
X150926829Y-56260799D01*
X150376552Y-56288770D01*
X149998077Y-56445540D01*
X149930088Y-56686483D01*
X149269157Y-56686483D01*
X149067564Y-56484539D01*
X148558702Y-56273241D01*
X148007715Y-56272760D01*
X147498485Y-56483169D01*
X147108539Y-56872436D01*
X146897241Y-57381298D01*
X146896760Y-57932285D01*
X140423294Y-57932285D01*
X144604392Y-53751187D01*
X147154752Y-53751187D01*
X147372757Y-54278800D01*
X147776077Y-54682824D01*
X148303309Y-54901750D01*
X148874187Y-54902248D01*
X149401800Y-54684243D01*
X149611663Y-54474745D01*
X152761861Y-54474745D01*
X152835995Y-54720864D01*
X153373223Y-54913965D01*
X153943454Y-54886778D01*
X154344005Y-54720864D01*
X154418139Y-54474745D01*
X153590000Y-53646605D01*
X152761861Y-54474745D01*
X149611663Y-54474745D01*
X149805824Y-54280923D01*
X150024750Y-53753691D01*
X150025189Y-53250223D01*
X152143035Y-53250223D01*
X152170222Y-53820454D01*
X152336136Y-54221005D01*
X152582255Y-54295139D01*
X153410395Y-53467000D01*
X153769605Y-53467000D01*
X154597745Y-54295139D01*
X154843864Y-54221005D01*
X155036965Y-53683777D01*
X155009778Y-53113546D01*
X154922876Y-52903745D01*
X157159861Y-52903745D01*
X157233995Y-53149864D01*
X157771223Y-53342965D01*
X158341454Y-53315778D01*
X158742005Y-53149864D01*
X158816139Y-52903745D01*
X157988000Y-52075605D01*
X157159861Y-52903745D01*
X154922876Y-52903745D01*
X154843864Y-52712995D01*
X154597745Y-52638861D01*
X153769605Y-53467000D01*
X153410395Y-53467000D01*
X152582255Y-52638861D01*
X152336136Y-52712995D01*
X152143035Y-53250223D01*
X150025189Y-53250223D01*
X150025248Y-53182813D01*
X149807243Y-52655200D01*
X149611640Y-52459255D01*
X152761861Y-52459255D01*
X153590000Y-53287395D01*
X154418139Y-52459255D01*
X154344005Y-52213136D01*
X153806777Y-52020035D01*
X153236546Y-52047222D01*
X152835995Y-52213136D01*
X152761861Y-52459255D01*
X149611640Y-52459255D01*
X149403923Y-52251176D01*
X148876691Y-52032250D01*
X148305813Y-52031752D01*
X147778200Y-52249757D01*
X147374176Y-52653077D01*
X147155250Y-53180309D01*
X147154752Y-53751187D01*
X144604392Y-53751187D01*
X146676356Y-51679223D01*
X156541035Y-51679223D01*
X156568222Y-52249454D01*
X156734136Y-52650005D01*
X156980255Y-52724139D01*
X157808395Y-51896000D01*
X158167605Y-51896000D01*
X158995745Y-52724139D01*
X159241864Y-52650005D01*
X159434965Y-52112777D01*
X159407778Y-51542546D01*
X159241864Y-51141995D01*
X158995745Y-51067861D01*
X158167605Y-51896000D01*
X157808395Y-51896000D01*
X156980255Y-51067861D01*
X156734136Y-51141995D01*
X156541035Y-51679223D01*
X146676356Y-51679223D01*
X147467324Y-50888255D01*
X157159861Y-50888255D01*
X157988000Y-51716395D01*
X158816139Y-50888255D01*
X158742005Y-50642136D01*
X158204777Y-50449035D01*
X157634546Y-50476222D01*
X157233995Y-50642136D01*
X157159861Y-50888255D01*
X147467324Y-50888255D01*
X148702579Y-49653000D01*
X157875420Y-49653000D01*
X158669255Y-50446834D01*
X158718883Y-50566943D01*
X158981673Y-50830192D01*
X159325201Y-50972838D01*
X159697167Y-50973162D01*
X160040943Y-50831117D01*
X160304192Y-50568327D01*
X160446838Y-50224799D01*
X160447162Y-49852833D01*
X160305117Y-49509057D01*
X160042327Y-49245808D01*
X159921013Y-49195434D01*
X158867790Y-48142210D01*
X158797135Y-48095000D01*
X158580675Y-47950367D01*
X158524484Y-47939190D01*
X158242000Y-47882999D01*
X158241995Y-47883000D01*
X148336005Y-47883000D01*
X148336000Y-47882999D01*
X148053516Y-47939190D01*
X147997325Y-47950367D01*
X147710210Y-48142210D01*
X147710208Y-48142213D01*
X142589085Y-53263336D01*
X142563778Y-52732546D01*
X142397864Y-52331995D01*
X142151745Y-52257861D01*
X141323605Y-53086000D01*
X141337748Y-53100142D01*
X141158142Y-53279748D01*
X141144000Y-53265605D01*
X140315861Y-54093745D01*
X140389995Y-54339864D01*
X140927223Y-54532965D01*
X141339092Y-54513328D01*
X136511467Y-59340953D01*
X136313325Y-59380367D01*
X136034007Y-59567000D01*
X131445005Y-59567000D01*
X131445000Y-59566999D01*
X131444995Y-59567000D01*
X128509579Y-59567000D01*
X126926146Y-57983566D01*
X126945824Y-57963923D01*
X127164750Y-57436691D01*
X127165228Y-56887745D01*
X128751861Y-56887745D01*
X128825995Y-57133864D01*
X129363223Y-57326965D01*
X129933454Y-57299778D01*
X130334005Y-57133864D01*
X130408139Y-56887745D01*
X129580000Y-56059605D01*
X128751861Y-56887745D01*
X127165228Y-56887745D01*
X127165248Y-56865813D01*
X126947243Y-56338200D01*
X126543923Y-55934176D01*
X126016691Y-55715250D01*
X125445813Y-55714752D01*
X124918200Y-55932757D01*
X124514176Y-56336077D01*
X124295250Y-56863309D01*
X124294752Y-57434187D01*
X124512757Y-57961800D01*
X124908500Y-58358234D01*
X124912367Y-58377675D01*
X125103475Y-58663690D01*
X125104210Y-58664790D01*
X125363276Y-58923856D01*
X124918200Y-59107757D01*
X124514176Y-59511077D01*
X124295250Y-60038309D01*
X124294752Y-60609187D01*
X124512757Y-61136800D01*
X124916077Y-61540824D01*
X125443309Y-61759750D01*
X126014187Y-61760248D01*
X126043131Y-61748289D01*
X126469000Y-62174157D01*
X126469000Y-62992000D01*
X126528755Y-63292407D01*
X126698921Y-63547079D01*
X128247000Y-65095158D01*
X128247000Y-71449581D01*
X128090243Y-71070200D01*
X127686923Y-70666176D01*
X127159691Y-70447250D01*
X126588813Y-70446752D01*
X126061200Y-70664757D01*
X125657176Y-71068077D01*
X125438250Y-71595309D01*
X125437752Y-72166187D01*
X125655757Y-72693800D01*
X126059077Y-73097824D01*
X126586309Y-73316750D01*
X127157187Y-73317248D01*
X127684800Y-73099243D01*
X128088824Y-72695923D01*
X128247000Y-72314993D01*
X128247000Y-75946000D01*
X128306755Y-76246407D01*
X128476921Y-76501079D01*
X128604847Y-76629005D01*
X128604838Y-76639167D01*
X128746883Y-76982943D01*
X129009673Y-77246192D01*
X129353201Y-77388838D01*
X129725167Y-77389162D01*
X130068943Y-77247117D01*
X130332192Y-76984327D01*
X130474838Y-76640799D01*
X130474898Y-76572000D01*
X130797560Y-76572000D01*
X130797560Y-77452000D01*
X130841838Y-77687317D01*
X130872863Y-77735531D01*
X130720197Y-77888197D01*
X130692334Y-77930211D01*
X130683000Y-77978000D01*
X130683000Y-80339957D01*
X130590054Y-80200853D01*
X130108285Y-79878946D01*
X129540000Y-79765907D01*
X128971715Y-79878946D01*
X128489946Y-80200853D01*
X128270000Y-80530026D01*
X128050054Y-80200853D01*
X127568285Y-79878946D01*
X127000000Y-79765907D01*
X126431715Y-79878946D01*
X125949946Y-80200853D01*
X125730000Y-80530026D01*
X125510054Y-80200853D01*
X125028285Y-79878946D01*
X124460000Y-79765907D01*
X123891715Y-79878946D01*
X123409946Y-80200853D01*
X123190000Y-80530026D01*
X122970054Y-80200853D01*
X122488285Y-79878946D01*
X121920000Y-79765907D01*
X121351715Y-79878946D01*
X120869946Y-80200853D01*
X120842150Y-80242452D01*
X120833162Y-80194683D01*
X120694090Y-79978559D01*
X120481890Y-79833569D01*
X120230000Y-79782560D01*
X118530000Y-79782560D01*
X118294683Y-79826838D01*
X118078559Y-79965910D01*
X117933569Y-80178110D01*
X117882560Y-80430000D01*
X117882560Y-82130000D01*
X117926838Y-82365317D01*
X118065910Y-82581441D01*
X118278110Y-82726431D01*
X118530000Y-82777440D01*
X120230000Y-82777440D01*
X120465317Y-82733162D01*
X120681441Y-82594090D01*
X120826431Y-82381890D01*
X120840086Y-82314459D01*
X120869946Y-82359147D01*
X121351715Y-82681054D01*
X121920000Y-82794093D01*
X122488285Y-82681054D01*
X122970054Y-82359147D01*
X123190000Y-82029974D01*
X123409946Y-82359147D01*
X123891715Y-82681054D01*
X124460000Y-82794093D01*
X125028285Y-82681054D01*
X125510054Y-82359147D01*
X125730000Y-82029974D01*
X125949946Y-82359147D01*
X126431715Y-82681054D01*
X127000000Y-82794093D01*
X127568285Y-82681054D01*
X128050054Y-82359147D01*
X128270000Y-82029974D01*
X128489946Y-82359147D01*
X128971715Y-82681054D01*
X129540000Y-82794093D01*
X130108285Y-82681054D01*
X130590054Y-82359147D01*
X130683000Y-82220043D01*
X130683000Y-84380000D01*
X111200000Y-84380000D01*
X111200000Y-81772128D01*
X111814570Y-81772128D01*
X112192091Y-82685800D01*
X112890523Y-83385452D01*
X113803534Y-83764568D01*
X114792128Y-83765430D01*
X115705800Y-83387909D01*
X116405452Y-82689477D01*
X116784568Y-81776466D01*
X116785430Y-80787872D01*
X116407909Y-79874200D01*
X115709477Y-79174548D01*
X114796466Y-78795432D01*
X113807872Y-78794570D01*
X112894200Y-79172091D01*
X112194548Y-79870523D01*
X111815432Y-80783534D01*
X111814570Y-81772128D01*
X111200000Y-81772128D01*
X111200000Y-76485750D01*
X112815000Y-76485750D01*
X112815000Y-77176310D01*
X112911673Y-77409699D01*
X113090302Y-77588327D01*
X113323691Y-77685000D01*
X114014250Y-77685000D01*
X114173000Y-77526250D01*
X114173000Y-76327000D01*
X114427000Y-76327000D01*
X114427000Y-77526250D01*
X114585750Y-77685000D01*
X115276309Y-77685000D01*
X115509698Y-77588327D01*
X115688327Y-77409699D01*
X115785000Y-77176310D01*
X115785000Y-76485750D01*
X115626250Y-76327000D01*
X114427000Y-76327000D01*
X114173000Y-76327000D01*
X112973750Y-76327000D01*
X112815000Y-76485750D01*
X111200000Y-76485750D01*
X111200000Y-75223690D01*
X112815000Y-75223690D01*
X112815000Y-75914250D01*
X112973750Y-76073000D01*
X114173000Y-76073000D01*
X114173000Y-73787000D01*
X114427000Y-73787000D01*
X114427000Y-76073000D01*
X115626250Y-76073000D01*
X115785000Y-75914250D01*
X115785000Y-75223690D01*
X115688327Y-74990301D01*
X115509698Y-74811673D01*
X115300122Y-74724864D01*
X115571645Y-74426924D01*
X115741476Y-74016890D01*
X115620155Y-73787000D01*
X114427000Y-73787000D01*
X114173000Y-73787000D01*
X112979845Y-73787000D01*
X112858524Y-74016890D01*
X113028355Y-74426924D01*
X113299878Y-74724864D01*
X113090302Y-74811673D01*
X112911673Y-74990301D01*
X112815000Y-75223690D01*
X111200000Y-75223690D01*
X111200000Y-73660000D01*
X121294907Y-73660000D01*
X121407946Y-74228285D01*
X121729853Y-74710054D01*
X122211622Y-75031961D01*
X122779907Y-75145000D01*
X122838093Y-75145000D01*
X123406378Y-75031961D01*
X123888147Y-74710054D01*
X124210054Y-74228285D01*
X124323093Y-73660000D01*
X124210054Y-73091715D01*
X123888147Y-72609946D01*
X123547447Y-72382298D01*
X123690358Y-72315183D01*
X124080645Y-71886924D01*
X124250476Y-71476890D01*
X124129155Y-71247000D01*
X122936000Y-71247000D01*
X122936000Y-71267000D01*
X122682000Y-71267000D01*
X122682000Y-71247000D01*
X121488845Y-71247000D01*
X121367524Y-71476890D01*
X121537355Y-71886924D01*
X121927642Y-72315183D01*
X122070553Y-72382298D01*
X121729853Y-72609946D01*
X121407946Y-73091715D01*
X121294907Y-73660000D01*
X111200000Y-73660000D01*
X111200000Y-63500000D01*
X112785907Y-63500000D01*
X112898946Y-64068285D01*
X113220853Y-64550054D01*
X113550026Y-64770000D01*
X113220853Y-64989946D01*
X112898946Y-65471715D01*
X112785907Y-66040000D01*
X112898946Y-66608285D01*
X113220853Y-67090054D01*
X113550026Y-67310000D01*
X113220853Y-67529946D01*
X112898946Y-68011715D01*
X112785907Y-68580000D01*
X112898946Y-69148285D01*
X113220853Y-69630054D01*
X113550026Y-69850000D01*
X113220853Y-70069946D01*
X112898946Y-70551715D01*
X112785907Y-71120000D01*
X112898946Y-71688285D01*
X113220853Y-72170054D01*
X113561553Y-72397702D01*
X113418642Y-72464817D01*
X113028355Y-72893076D01*
X112858524Y-73303110D01*
X112979845Y-73533000D01*
X114173000Y-73533000D01*
X114173000Y-73513000D01*
X114427000Y-73513000D01*
X114427000Y-73533000D01*
X115620155Y-73533000D01*
X115741476Y-73303110D01*
X115571645Y-72893076D01*
X115181358Y-72464817D01*
X115038447Y-72397702D01*
X115379147Y-72170054D01*
X115701054Y-71688285D01*
X115814093Y-71120000D01*
X115701054Y-70551715D01*
X115379147Y-70069946D01*
X115049974Y-69850000D01*
X115379147Y-69630054D01*
X115701054Y-69148285D01*
X115814093Y-68580000D01*
X121294907Y-68580000D01*
X121407946Y-69148285D01*
X121729853Y-69630054D01*
X122070553Y-69857702D01*
X121927642Y-69924817D01*
X121537355Y-70353076D01*
X121367524Y-70763110D01*
X121488845Y-70993000D01*
X122682000Y-70993000D01*
X122682000Y-70973000D01*
X122936000Y-70973000D01*
X122936000Y-70993000D01*
X124129155Y-70993000D01*
X124250476Y-70763110D01*
X124080645Y-70353076D01*
X123690358Y-69924817D01*
X123547447Y-69857702D01*
X123888147Y-69630054D01*
X124210054Y-69148285D01*
X124247307Y-68961000D01*
X125028887Y-68961000D01*
X125138120Y-69510151D01*
X125449189Y-69975698D01*
X125914736Y-70286767D01*
X126463887Y-70396000D01*
X126520113Y-70396000D01*
X127069264Y-70286767D01*
X127534811Y-69975698D01*
X127845880Y-69510151D01*
X127955113Y-68961000D01*
X127845880Y-68411849D01*
X127534811Y-67946302D01*
X127069264Y-67635233D01*
X126520113Y-67526000D01*
X126463887Y-67526000D01*
X125914736Y-67635233D01*
X125449189Y-67946302D01*
X125138120Y-68411849D01*
X125028887Y-68961000D01*
X124247307Y-68961000D01*
X124323093Y-68580000D01*
X124210054Y-68011715D01*
X123888147Y-67529946D01*
X123846548Y-67502150D01*
X123894317Y-67493162D01*
X124110441Y-67354090D01*
X124255431Y-67141890D01*
X124306440Y-66890000D01*
X124306440Y-65786000D01*
X125028887Y-65786000D01*
X125138120Y-66335151D01*
X125449189Y-66800698D01*
X125914736Y-67111767D01*
X126463887Y-67221000D01*
X126520113Y-67221000D01*
X127069264Y-67111767D01*
X127534811Y-66800698D01*
X127845880Y-66335151D01*
X127955113Y-65786000D01*
X127845880Y-65236849D01*
X127534811Y-64771302D01*
X127069264Y-64460233D01*
X126520113Y-64351000D01*
X126463887Y-64351000D01*
X125914736Y-64460233D01*
X125449189Y-64771302D01*
X125138120Y-65236849D01*
X125028887Y-65786000D01*
X124306440Y-65786000D01*
X124306440Y-65190000D01*
X124262162Y-64954683D01*
X124123090Y-64738559D01*
X123910890Y-64593569D01*
X123659000Y-64542560D01*
X121959000Y-64542560D01*
X121723683Y-64586838D01*
X121507559Y-64725910D01*
X121362569Y-64938110D01*
X121311560Y-65190000D01*
X121311560Y-66890000D01*
X121355838Y-67125317D01*
X121494910Y-67341441D01*
X121707110Y-67486431D01*
X121774541Y-67500086D01*
X121729853Y-67529946D01*
X121407946Y-68011715D01*
X121294907Y-68580000D01*
X115814093Y-68580000D01*
X115701054Y-68011715D01*
X115379147Y-67529946D01*
X115049974Y-67310000D01*
X115379147Y-67090054D01*
X115701054Y-66608285D01*
X115814093Y-66040000D01*
X115701054Y-65471715D01*
X115379147Y-64989946D01*
X115049974Y-64770000D01*
X115379147Y-64550054D01*
X115701054Y-64068285D01*
X115814093Y-63500000D01*
X115701054Y-62931715D01*
X115379147Y-62449946D01*
X114897378Y-62128039D01*
X114329093Y-62015000D01*
X114270907Y-62015000D01*
X113702622Y-62128039D01*
X113220853Y-62449946D01*
X112898946Y-62931715D01*
X112785907Y-63500000D01*
X111200000Y-63500000D01*
X111200000Y-61225000D01*
X111474250Y-61225000D01*
X111633000Y-61066250D01*
X111633000Y-59817000D01*
X111613000Y-59817000D01*
X111613000Y-59563000D01*
X111633000Y-59563000D01*
X111633000Y-58313750D01*
X111887000Y-58313750D01*
X111887000Y-59563000D01*
X111907000Y-59563000D01*
X111907000Y-59817000D01*
X111887000Y-59817000D01*
X111887000Y-61066250D01*
X112045750Y-61225000D01*
X112786309Y-61225000D01*
X113019698Y-61128327D01*
X113198327Y-60949699D01*
X113254119Y-60815006D01*
X113429357Y-60990551D01*
X113993330Y-61224733D01*
X114603991Y-61225265D01*
X115168371Y-60992068D01*
X115600551Y-60560643D01*
X115698398Y-60325000D01*
X116646887Y-60325000D01*
X116756120Y-60874151D01*
X117067189Y-61339698D01*
X117532736Y-61650767D01*
X118081887Y-61760000D01*
X118138113Y-61760000D01*
X118687264Y-61650767D01*
X119152811Y-61339698D01*
X119463880Y-60874151D01*
X119573113Y-60325000D01*
X119463880Y-59775849D01*
X119152811Y-59310302D01*
X118687264Y-58999233D01*
X118138113Y-58890000D01*
X118081887Y-58890000D01*
X117532736Y-58999233D01*
X117067189Y-59310302D01*
X116756120Y-59775849D01*
X116646887Y-60325000D01*
X115698398Y-60325000D01*
X115834733Y-59996670D01*
X115835265Y-59386009D01*
X115602068Y-58821629D01*
X115170643Y-58389449D01*
X114606670Y-58155267D01*
X113996009Y-58154735D01*
X113431629Y-58387932D01*
X113254159Y-58565092D01*
X113198327Y-58430301D01*
X113019698Y-58251673D01*
X112786309Y-58155000D01*
X112045750Y-58155000D01*
X111887000Y-58313750D01*
X111633000Y-58313750D01*
X111474250Y-58155000D01*
X111200000Y-58155000D01*
X111200000Y-57150000D01*
X116646887Y-57150000D01*
X116756120Y-57699151D01*
X117067189Y-58164698D01*
X117532736Y-58475767D01*
X118081887Y-58585000D01*
X118138113Y-58585000D01*
X118687264Y-58475767D01*
X119152811Y-58164698D01*
X119463880Y-57699151D01*
X119573113Y-57150000D01*
X119463880Y-56600849D01*
X119152811Y-56135302D01*
X118687264Y-55824233D01*
X118138113Y-55715000D01*
X118081887Y-55715000D01*
X117532736Y-55824233D01*
X117067189Y-56135302D01*
X116756120Y-56600849D01*
X116646887Y-57150000D01*
X111200000Y-57150000D01*
X111200000Y-56780000D01*
X111474250Y-56780000D01*
X111633000Y-56621250D01*
X111633000Y-55372000D01*
X111613000Y-55372000D01*
X111613000Y-55118000D01*
X111633000Y-55118000D01*
X111633000Y-53868750D01*
X111887000Y-53868750D01*
X111887000Y-55118000D01*
X111907000Y-55118000D01*
X111907000Y-55372000D01*
X111887000Y-55372000D01*
X111887000Y-56621250D01*
X112045750Y-56780000D01*
X112786309Y-56780000D01*
X113019698Y-56683327D01*
X113198327Y-56504699D01*
X113254119Y-56370006D01*
X113429357Y-56545551D01*
X113993330Y-56779733D01*
X114603991Y-56780265D01*
X115168371Y-56547068D01*
X115600551Y-56115643D01*
X115788412Y-55663223D01*
X128133035Y-55663223D01*
X128160222Y-56233454D01*
X128326136Y-56634005D01*
X128572255Y-56708139D01*
X129400395Y-55880000D01*
X129759605Y-55880000D01*
X130587745Y-56708139D01*
X130635167Y-56693855D01*
X130676838Y-56915317D01*
X130815910Y-57131441D01*
X131028110Y-57276431D01*
X131280000Y-57327440D01*
X132880000Y-57327440D01*
X133115317Y-57283162D01*
X133331441Y-57144090D01*
X133476431Y-56931890D01*
X133527440Y-56680000D01*
X133527440Y-55080000D01*
X133483162Y-54844683D01*
X133344090Y-54628559D01*
X133131890Y-54483569D01*
X132880000Y-54432560D01*
X131280000Y-54432560D01*
X131044683Y-54476838D01*
X130828559Y-54615910D01*
X130683569Y-54828110D01*
X130635354Y-55066201D01*
X130587745Y-55051861D01*
X129759605Y-55880000D01*
X129400395Y-55880000D01*
X128572255Y-55051861D01*
X128326136Y-55125995D01*
X128133035Y-55663223D01*
X115788412Y-55663223D01*
X115834733Y-55551670D01*
X115834913Y-55345000D01*
X117364250Y-55345000D01*
X117523000Y-55186250D01*
X117523000Y-53087000D01*
X117777000Y-53087000D01*
X117777000Y-55186250D01*
X117935750Y-55345000D01*
X119526309Y-55345000D01*
X119759698Y-55248327D01*
X119938327Y-55069699D01*
X120020111Y-54872255D01*
X128751861Y-54872255D01*
X129580000Y-55700395D01*
X130408139Y-54872255D01*
X130334005Y-54626136D01*
X129796777Y-54433035D01*
X129226546Y-54460222D01*
X128825995Y-54626136D01*
X128751861Y-54872255D01*
X120020111Y-54872255D01*
X120035000Y-54836310D01*
X120035000Y-53245750D01*
X119876250Y-53087000D01*
X117777000Y-53087000D01*
X117523000Y-53087000D01*
X115423750Y-53087000D01*
X115265000Y-53245750D01*
X115265000Y-54038971D01*
X115170643Y-53944449D01*
X114606670Y-53710267D01*
X113996009Y-53709735D01*
X113431629Y-53942932D01*
X113254159Y-54120092D01*
X113198327Y-53985301D01*
X113019698Y-53806673D01*
X112786309Y-53710000D01*
X112045750Y-53710000D01*
X111887000Y-53868750D01*
X111633000Y-53868750D01*
X111474250Y-53710000D01*
X111200000Y-53710000D01*
X111200000Y-48545750D01*
X112265000Y-48545750D01*
X112265000Y-50136310D01*
X112361673Y-50369699D01*
X112540302Y-50548327D01*
X112773691Y-50645000D01*
X114364250Y-50645000D01*
X114523000Y-50486250D01*
X114523000Y-48387000D01*
X114777000Y-48387000D01*
X114777000Y-50486250D01*
X114935750Y-50645000D01*
X115604696Y-50645000D01*
X115540302Y-50671673D01*
X115361673Y-50850301D01*
X115265000Y-51083690D01*
X115265000Y-52674250D01*
X115423750Y-52833000D01*
X117523000Y-52833000D01*
X117523000Y-50733750D01*
X117777000Y-50733750D01*
X117777000Y-52833000D01*
X119876250Y-52833000D01*
X120035000Y-52674250D01*
X120035000Y-51083690D01*
X119938327Y-50850301D01*
X119759698Y-50671673D01*
X119725337Y-50657440D01*
X122400000Y-50657440D01*
X122635317Y-50613162D01*
X122739689Y-50546000D01*
X134578928Y-50546000D01*
X134692519Y-51117059D01*
X135015998Y-51601180D01*
X135384262Y-51847246D01*
X135332200Y-51868757D01*
X134928176Y-52272077D01*
X134709250Y-52799309D01*
X134708752Y-53370187D01*
X134926757Y-53897800D01*
X135330077Y-54301824D01*
X135857309Y-54520750D01*
X136428187Y-54521248D01*
X136955800Y-54303243D01*
X137359824Y-53899923D01*
X137578750Y-53372691D01*
X137579189Y-52869223D01*
X139697035Y-52869223D01*
X139724222Y-53439454D01*
X139890136Y-53840005D01*
X140136255Y-53914139D01*
X140964395Y-53086000D01*
X140136255Y-52257861D01*
X139890136Y-52331995D01*
X139697035Y-52869223D01*
X137579189Y-52869223D01*
X137579248Y-52801813D01*
X137361243Y-52274200D01*
X137165640Y-52078255D01*
X140315861Y-52078255D01*
X141144000Y-52906395D01*
X141972139Y-52078255D01*
X141898005Y-51832136D01*
X141360777Y-51639035D01*
X140790546Y-51666222D01*
X140389995Y-51832136D01*
X140315861Y-52078255D01*
X137165640Y-52078255D01*
X136957923Y-51870176D01*
X136903341Y-51847511D01*
X137272002Y-51601180D01*
X137595481Y-51117059D01*
X137709072Y-50546000D01*
X137595481Y-49974941D01*
X137272002Y-49490820D01*
X137125574Y-49392980D01*
X137440628Y-49066856D01*
X137635413Y-48618029D01*
X137514189Y-48387000D01*
X136271000Y-48387000D01*
X136271000Y-48407000D01*
X136017000Y-48407000D01*
X136017000Y-48387000D01*
X134773811Y-48387000D01*
X134652587Y-48618029D01*
X134847372Y-49066856D01*
X135162426Y-49392980D01*
X135015998Y-49490820D01*
X134692519Y-49974941D01*
X134578928Y-50546000D01*
X122739689Y-50546000D01*
X122851441Y-50474090D01*
X122996431Y-50261890D01*
X123047440Y-50010000D01*
X123047440Y-49902745D01*
X128751861Y-49902745D01*
X128825995Y-50148864D01*
X129363223Y-50341965D01*
X129933454Y-50314778D01*
X130334005Y-50148864D01*
X130408139Y-49902745D01*
X129580000Y-49074605D01*
X128751861Y-49902745D01*
X123047440Y-49902745D01*
X123047440Y-48678223D01*
X128133035Y-48678223D01*
X128160222Y-49248454D01*
X128326136Y-49649005D01*
X128572255Y-49723139D01*
X129400395Y-48895000D01*
X129759605Y-48895000D01*
X130587745Y-49723139D01*
X130635167Y-49708855D01*
X130676838Y-49930317D01*
X130815910Y-50146441D01*
X131028110Y-50291431D01*
X131280000Y-50342440D01*
X132880000Y-50342440D01*
X133115317Y-50298162D01*
X133331441Y-50159090D01*
X133476431Y-49946890D01*
X133527440Y-49695000D01*
X133527440Y-48095000D01*
X133483162Y-47859683D01*
X133344090Y-47643559D01*
X133131890Y-47498569D01*
X132880000Y-47447560D01*
X131280000Y-47447560D01*
X131044683Y-47491838D01*
X130828559Y-47630910D01*
X130683569Y-47843110D01*
X130635354Y-48081201D01*
X130587745Y-48066861D01*
X129759605Y-48895000D01*
X129400395Y-48895000D01*
X128572255Y-48066861D01*
X128326136Y-48140995D01*
X128133035Y-48678223D01*
X123047440Y-48678223D01*
X123047440Y-47887255D01*
X128751861Y-47887255D01*
X128849228Y-47984623D01*
X128854755Y-48012406D01*
X129024921Y-48267079D01*
X129279594Y-48437245D01*
X129307377Y-48442771D01*
X129580000Y-48715395D01*
X129852623Y-48442771D01*
X129880406Y-48437245D01*
X130135079Y-48267079D01*
X130305245Y-48012406D01*
X130310772Y-47984623D01*
X130408139Y-47887255D01*
X130361162Y-47731295D01*
X130365000Y-47712000D01*
X130365000Y-47625000D01*
X130305245Y-47324594D01*
X130135079Y-47069921D01*
X129880406Y-46899755D01*
X129580000Y-46840000D01*
X129279594Y-46899755D01*
X129024921Y-47069921D01*
X128854755Y-47324594D01*
X128795000Y-47625000D01*
X128795000Y-47712000D01*
X128798838Y-47731295D01*
X128751861Y-47887255D01*
X123047440Y-47887255D01*
X123047440Y-46510000D01*
X123003162Y-46274683D01*
X122864090Y-46058559D01*
X122651890Y-45913569D01*
X122400000Y-45862560D01*
X118900000Y-45862560D01*
X118664683Y-45906838D01*
X118448559Y-46045910D01*
X118303569Y-46258110D01*
X118252560Y-46510000D01*
X118252560Y-50010000D01*
X118296838Y-50245317D01*
X118435910Y-50461441D01*
X118602109Y-50575000D01*
X117935750Y-50575000D01*
X117777000Y-50733750D01*
X117523000Y-50733750D01*
X117364250Y-50575000D01*
X116695304Y-50575000D01*
X116759698Y-50548327D01*
X116938327Y-50369699D01*
X117035000Y-50136310D01*
X117035000Y-48545750D01*
X116876250Y-48387000D01*
X114777000Y-48387000D01*
X114523000Y-48387000D01*
X112423750Y-48387000D01*
X112265000Y-48545750D01*
X111200000Y-48545750D01*
X111200000Y-46383690D01*
X112265000Y-46383690D01*
X112265000Y-47974250D01*
X112423750Y-48133000D01*
X114523000Y-48133000D01*
X114523000Y-46033750D01*
X114777000Y-46033750D01*
X114777000Y-48133000D01*
X116876250Y-48133000D01*
X117035000Y-47974250D01*
X117035000Y-46383690D01*
X116938327Y-46150301D01*
X116759698Y-45971673D01*
X116526309Y-45875000D01*
X114935750Y-45875000D01*
X114777000Y-46033750D01*
X114523000Y-46033750D01*
X114364250Y-45875000D01*
X112773691Y-45875000D01*
X112540302Y-45971673D01*
X112361673Y-46150301D01*
X112265000Y-46383690D01*
X111200000Y-46383690D01*
X111200000Y-45116750D01*
X134596560Y-45116750D01*
X134596560Y-46831250D01*
X134640838Y-47066567D01*
X134779910Y-47282691D01*
X134919740Y-47378233D01*
X134847372Y-47453144D01*
X134652587Y-47901971D01*
X134773811Y-48133000D01*
X136017000Y-48133000D01*
X136017000Y-48113000D01*
X136271000Y-48113000D01*
X136271000Y-48133000D01*
X137514189Y-48133000D01*
X137635413Y-47901971D01*
X137440628Y-47453144D01*
X137367632Y-47377583D01*
X137495441Y-47295340D01*
X137640431Y-47083140D01*
X137691440Y-46831250D01*
X137691440Y-45116750D01*
X137647162Y-44881433D01*
X137508090Y-44665309D01*
X137295890Y-44520319D01*
X137044000Y-44469310D01*
X135244000Y-44469310D01*
X135008683Y-44513588D01*
X134792559Y-44652660D01*
X134647569Y-44864860D01*
X134596560Y-45116750D01*
X111200000Y-45116750D01*
X111200000Y-44226187D01*
X173189752Y-44226187D01*
X173407757Y-44753800D01*
X173811077Y-45157824D01*
X174338309Y-45376750D01*
X174909187Y-45377248D01*
X175436800Y-45159243D01*
X175769623Y-44827000D01*
X177327268Y-44827000D01*
X177318560Y-44870000D01*
X177318560Y-46570000D01*
X177362838Y-46805317D01*
X177501910Y-47021441D01*
X177714110Y-47166431D01*
X177781541Y-47180086D01*
X177736853Y-47209946D01*
X177414946Y-47691715D01*
X177301907Y-48260000D01*
X177414946Y-48828285D01*
X177736853Y-49310054D01*
X178066026Y-49530000D01*
X177736853Y-49749946D01*
X177559750Y-50015000D01*
X175260005Y-50015000D01*
X175260000Y-50014999D01*
X174959594Y-50074755D01*
X174855006Y-50144638D01*
X174625000Y-50098887D01*
X174075849Y-50208120D01*
X173610302Y-50519189D01*
X173299233Y-50984736D01*
X173190000Y-51533887D01*
X173190000Y-51590113D01*
X173299233Y-52139264D01*
X173610302Y-52604811D01*
X174075849Y-52915880D01*
X174625000Y-53025113D01*
X175174151Y-52915880D01*
X175639698Y-52604811D01*
X175950767Y-52139264D01*
X176060000Y-51590113D01*
X176060000Y-51585000D01*
X177559750Y-51585000D01*
X177736853Y-51850054D01*
X178218622Y-52171961D01*
X178786907Y-52285000D01*
X178845093Y-52285000D01*
X179413378Y-52171961D01*
X179895147Y-51850054D01*
X180084345Y-51566899D01*
X180084355Y-51566924D01*
X180474642Y-51995183D01*
X180999108Y-52241486D01*
X181229000Y-52120819D01*
X181229000Y-50927000D01*
X181483000Y-50927000D01*
X181483000Y-52120819D01*
X181712892Y-52241486D01*
X182237358Y-51995183D01*
X182627645Y-51566924D01*
X182797476Y-51156890D01*
X182676155Y-50927000D01*
X181483000Y-50927000D01*
X181229000Y-50927000D01*
X181209000Y-50927000D01*
X181209000Y-50673000D01*
X181229000Y-50673000D01*
X181229000Y-50653000D01*
X181483000Y-50653000D01*
X181483000Y-50673000D01*
X182676155Y-50673000D01*
X182797476Y-50443110D01*
X182627645Y-50033076D01*
X182237358Y-49604817D01*
X182094447Y-49537702D01*
X182435147Y-49310054D01*
X182757054Y-48828285D01*
X182870093Y-48260000D01*
X182757054Y-47691715D01*
X182435147Y-47209946D01*
X182105974Y-46990000D01*
X182435147Y-46770054D01*
X182757054Y-46288285D01*
X182870093Y-45720000D01*
X182757054Y-45151715D01*
X182435147Y-44669946D01*
X182241000Y-44540221D01*
X182241000Y-44323000D01*
X182173633Y-43984325D01*
X181981790Y-43697210D01*
X181981787Y-43697208D01*
X181600790Y-43316210D01*
X181313675Y-43124367D01*
X181257484Y-43113190D01*
X180990353Y-43060053D01*
X181745800Y-42747909D01*
X182445452Y-42049477D01*
X182824568Y-41136466D01*
X182825430Y-40147872D01*
X182447909Y-39234200D01*
X181749477Y-38534548D01*
X180836466Y-38155432D01*
X179847872Y-38154570D01*
X178934200Y-38532091D01*
X178234548Y-39230523D01*
X177855432Y-40143534D01*
X177854570Y-41132128D01*
X178232091Y-42045800D01*
X178930523Y-42745452D01*
X179680812Y-43057000D01*
X175769171Y-43057000D01*
X175438923Y-42726176D01*
X174911691Y-42507250D01*
X174340813Y-42506752D01*
X173813200Y-42724757D01*
X173409176Y-43128077D01*
X173190250Y-43655309D01*
X173189752Y-44226187D01*
X111200000Y-44226187D01*
X111200000Y-41386128D01*
X111941570Y-41386128D01*
X112319091Y-42299800D01*
X113017523Y-42999452D01*
X113930534Y-43378568D01*
X114919128Y-43379430D01*
X115832800Y-43001909D01*
X116532452Y-42303477D01*
X116911568Y-41390466D01*
X116912247Y-40610907D01*
X117895000Y-40610907D01*
X117895000Y-40669093D01*
X118008039Y-41237378D01*
X118329946Y-41719147D01*
X118811715Y-42041054D01*
X119380000Y-42154093D01*
X119948285Y-42041054D01*
X120430054Y-41719147D01*
X120650000Y-41389974D01*
X120869946Y-41719147D01*
X121351715Y-42041054D01*
X121920000Y-42154093D01*
X122488285Y-42041054D01*
X122970054Y-41719147D01*
X123190000Y-41389974D01*
X123409946Y-41719147D01*
X123891715Y-42041054D01*
X124460000Y-42154093D01*
X125028285Y-42041054D01*
X125510054Y-41719147D01*
X125730000Y-41389974D01*
X125949946Y-41719147D01*
X126431715Y-42041054D01*
X127000000Y-42154093D01*
X127568285Y-42041054D01*
X128050054Y-41719147D01*
X128270000Y-41389974D01*
X128489946Y-41719147D01*
X128971715Y-42041054D01*
X129540000Y-42154093D01*
X130108285Y-42041054D01*
X130590054Y-41719147D01*
X130810000Y-41389974D01*
X131029946Y-41719147D01*
X131511715Y-42041054D01*
X132080000Y-42154093D01*
X132648285Y-42041054D01*
X133130054Y-41719147D01*
X133350000Y-41389974D01*
X133569946Y-41719147D01*
X134051715Y-42041054D01*
X134620000Y-42154093D01*
X135188285Y-42041054D01*
X135670054Y-41719147D01*
X135699403Y-41675223D01*
X135771673Y-41849698D01*
X135950301Y-42028327D01*
X136183690Y-42125000D01*
X136874250Y-42125000D01*
X137033000Y-41966250D01*
X137033000Y-40767000D01*
X137287000Y-40767000D01*
X137287000Y-41966250D01*
X137445750Y-42125000D01*
X138136310Y-42125000D01*
X138369699Y-42028327D01*
X138548327Y-41849698D01*
X138645000Y-41616309D01*
X138645000Y-40925750D01*
X138486250Y-40767000D01*
X137287000Y-40767000D01*
X137033000Y-40767000D01*
X137013000Y-40767000D01*
X137013000Y-40610907D01*
X155995000Y-40610907D01*
X155995000Y-40669093D01*
X156108039Y-41237378D01*
X156429946Y-41719147D01*
X156911715Y-42041054D01*
X157480000Y-42154093D01*
X158048285Y-42041054D01*
X158530054Y-41719147D01*
X158750000Y-41389974D01*
X158969946Y-41719147D01*
X159451715Y-42041054D01*
X160020000Y-42154093D01*
X160588285Y-42041054D01*
X161070054Y-41719147D01*
X161290000Y-41389974D01*
X161509946Y-41719147D01*
X161991715Y-42041054D01*
X162560000Y-42154093D01*
X163128285Y-42041054D01*
X163610054Y-41719147D01*
X163830000Y-41389974D01*
X164049946Y-41719147D01*
X164531715Y-42041054D01*
X165100000Y-42154093D01*
X165668285Y-42041054D01*
X166150054Y-41719147D01*
X166370000Y-41389974D01*
X166589946Y-41719147D01*
X167071715Y-42041054D01*
X167640000Y-42154093D01*
X168208285Y-42041054D01*
X168690054Y-41719147D01*
X168910000Y-41389974D01*
X169129946Y-41719147D01*
X169611715Y-42041054D01*
X170180000Y-42154093D01*
X170748285Y-42041054D01*
X171230054Y-41719147D01*
X171450000Y-41389974D01*
X171669946Y-41719147D01*
X172151715Y-42041054D01*
X172720000Y-42154093D01*
X173288285Y-42041054D01*
X173770054Y-41719147D01*
X173799403Y-41675223D01*
X173871673Y-41849698D01*
X174050301Y-42028327D01*
X174283690Y-42125000D01*
X174974250Y-42125000D01*
X175133000Y-41966250D01*
X175133000Y-40767000D01*
X175387000Y-40767000D01*
X175387000Y-41966250D01*
X175545750Y-42125000D01*
X176236310Y-42125000D01*
X176469699Y-42028327D01*
X176648327Y-41849698D01*
X176745000Y-41616309D01*
X176745000Y-40925750D01*
X176586250Y-40767000D01*
X175387000Y-40767000D01*
X175133000Y-40767000D01*
X175113000Y-40767000D01*
X175113000Y-40513000D01*
X175133000Y-40513000D01*
X175133000Y-39313750D01*
X175387000Y-39313750D01*
X175387000Y-40513000D01*
X176586250Y-40513000D01*
X176745000Y-40354250D01*
X176745000Y-39663691D01*
X176648327Y-39430302D01*
X176469699Y-39251673D01*
X176236310Y-39155000D01*
X175545750Y-39155000D01*
X175387000Y-39313750D01*
X175133000Y-39313750D01*
X174974250Y-39155000D01*
X174283690Y-39155000D01*
X174050301Y-39251673D01*
X173871673Y-39430302D01*
X173799403Y-39604777D01*
X173770054Y-39560853D01*
X173288285Y-39238946D01*
X172720000Y-39125907D01*
X172151715Y-39238946D01*
X171669946Y-39560853D01*
X171450000Y-39890026D01*
X171230054Y-39560853D01*
X170748285Y-39238946D01*
X170180000Y-39125907D01*
X169611715Y-39238946D01*
X169129946Y-39560853D01*
X168910000Y-39890026D01*
X168690054Y-39560853D01*
X168208285Y-39238946D01*
X167640000Y-39125907D01*
X167071715Y-39238946D01*
X166589946Y-39560853D01*
X166370000Y-39890026D01*
X166150054Y-39560853D01*
X165668285Y-39238946D01*
X165100000Y-39125907D01*
X164531715Y-39238946D01*
X164049946Y-39560853D01*
X163830000Y-39890026D01*
X163610054Y-39560853D01*
X163128285Y-39238946D01*
X162560000Y-39125907D01*
X161991715Y-39238946D01*
X161509946Y-39560853D01*
X161290000Y-39890026D01*
X161070054Y-39560853D01*
X160588285Y-39238946D01*
X160020000Y-39125907D01*
X159451715Y-39238946D01*
X158969946Y-39560853D01*
X158750000Y-39890026D01*
X158530054Y-39560853D01*
X158048285Y-39238946D01*
X157480000Y-39125907D01*
X156911715Y-39238946D01*
X156429946Y-39560853D01*
X156108039Y-40042622D01*
X155995000Y-40610907D01*
X137013000Y-40610907D01*
X137013000Y-40513000D01*
X137033000Y-40513000D01*
X137033000Y-39313750D01*
X137287000Y-39313750D01*
X137287000Y-40513000D01*
X138486250Y-40513000D01*
X138645000Y-40354250D01*
X138645000Y-39663691D01*
X138548327Y-39430302D01*
X138369699Y-39251673D01*
X138136310Y-39155000D01*
X137445750Y-39155000D01*
X137287000Y-39313750D01*
X137033000Y-39313750D01*
X136874250Y-39155000D01*
X136183690Y-39155000D01*
X135950301Y-39251673D01*
X135771673Y-39430302D01*
X135699403Y-39604777D01*
X135670054Y-39560853D01*
X135188285Y-39238946D01*
X134620000Y-39125907D01*
X134051715Y-39238946D01*
X133569946Y-39560853D01*
X133350000Y-39890026D01*
X133130054Y-39560853D01*
X132648285Y-39238946D01*
X132080000Y-39125907D01*
X131511715Y-39238946D01*
X131029946Y-39560853D01*
X130810000Y-39890026D01*
X130590054Y-39560853D01*
X130108285Y-39238946D01*
X129540000Y-39125907D01*
X128971715Y-39238946D01*
X128489946Y-39560853D01*
X128270000Y-39890026D01*
X128050054Y-39560853D01*
X127568285Y-39238946D01*
X127000000Y-39125907D01*
X126431715Y-39238946D01*
X125949946Y-39560853D01*
X125730000Y-39890026D01*
X125510054Y-39560853D01*
X125028285Y-39238946D01*
X124460000Y-39125907D01*
X123891715Y-39238946D01*
X123409946Y-39560853D01*
X123190000Y-39890026D01*
X122970054Y-39560853D01*
X122488285Y-39238946D01*
X121920000Y-39125907D01*
X121351715Y-39238946D01*
X120869946Y-39560853D01*
X120650000Y-39890026D01*
X120430054Y-39560853D01*
X119948285Y-39238946D01*
X119380000Y-39125907D01*
X118811715Y-39238946D01*
X118329946Y-39560853D01*
X118008039Y-40042622D01*
X117895000Y-40610907D01*
X116912247Y-40610907D01*
X116912430Y-40401872D01*
X116534909Y-39488200D01*
X115836477Y-38788548D01*
X114923466Y-38409432D01*
X113934872Y-38408570D01*
X113021200Y-38786091D01*
X112321548Y-39484523D01*
X111942432Y-40397534D01*
X111941570Y-41386128D01*
X111200000Y-41386128D01*
X111200000Y-37540000D01*
X183440000Y-37540000D01*
X183440000Y-55560448D01*
X183440000Y-55560448D01*
G37*
X183440000Y-55560448D02*
X183156474Y-55454381D01*
X182486544Y-55477651D01*
X181975687Y-55689255D01*
X181870902Y-55961297D01*
X182880000Y-56970395D01*
X182894143Y-56956253D01*
X183073748Y-57135858D01*
X183059605Y-57150000D01*
X183073748Y-57164143D01*
X182894143Y-57343748D01*
X182880000Y-57329605D01*
X181870902Y-58338703D01*
X181975687Y-58610745D01*
X182603526Y-58845619D01*
X183273456Y-58822349D01*
X183440000Y-58753364D01*
X183440000Y-84380000D01*
X172085000Y-84380000D01*
X172085000Y-82606286D01*
X172363110Y-82721476D01*
X172593000Y-82600155D01*
X172593000Y-81407000D01*
X172573000Y-81407000D01*
X172573000Y-81153000D01*
X172593000Y-81153000D01*
X172593000Y-81133000D01*
X172847000Y-81133000D01*
X172847000Y-81153000D01*
X172867000Y-81153000D01*
X172867000Y-81407000D01*
X172847000Y-81407000D01*
X172847000Y-82600155D01*
X173076890Y-82721476D01*
X173486924Y-82551645D01*
X173915183Y-82161358D01*
X173982298Y-82018447D01*
X174209946Y-82359147D01*
X174691715Y-82681054D01*
X175260000Y-82794093D01*
X175828285Y-82681054D01*
X176310054Y-82359147D01*
X176631961Y-81877378D01*
X176652896Y-81772128D01*
X177854570Y-81772128D01*
X178232091Y-82685800D01*
X178930523Y-83385452D01*
X179843534Y-83764568D01*
X180832128Y-83765430D01*
X181745800Y-83387909D01*
X182445452Y-82689477D01*
X182824568Y-81776466D01*
X182825430Y-80787872D01*
X182447909Y-79874200D01*
X181749477Y-79174548D01*
X180836466Y-78795432D01*
X179847872Y-78794570D01*
X178934200Y-79172091D01*
X178234548Y-79870523D01*
X177855432Y-80783534D01*
X177854570Y-81772128D01*
X176652896Y-81772128D01*
X176745000Y-81309093D01*
X176745000Y-81250907D01*
X176706281Y-81056252D01*
X176839633Y-80856675D01*
X176865841Y-80724921D01*
X176907001Y-80518000D01*
X176907000Y-80517995D01*
X176907000Y-67310005D01*
X176907001Y-67310000D01*
X176839633Y-66971326D01*
X176839633Y-66971325D01*
X176647790Y-66684210D01*
X176647787Y-66684208D01*
X175885790Y-65922210D01*
X175837584Y-65890000D01*
X175598675Y-65730367D01*
X175542484Y-65719190D01*
X175260000Y-65662999D01*
X175259995Y-65663000D01*
X158365000Y-65663000D01*
X158365000Y-63359473D01*
X158494698Y-63272811D01*
X158750000Y-62890725D01*
X159005302Y-63272811D01*
X159470849Y-63583880D01*
X160020000Y-63693113D01*
X160569151Y-63583880D01*
X161034698Y-63272811D01*
X161290000Y-62890725D01*
X161545302Y-63272811D01*
X162010849Y-63583880D01*
X162560000Y-63693113D01*
X163109151Y-63583880D01*
X163574698Y-63272811D01*
X163830000Y-62890725D01*
X164085302Y-63272811D01*
X164550849Y-63583880D01*
X165100000Y-63693113D01*
X165649151Y-63583880D01*
X166114698Y-63272811D01*
X166370000Y-62890725D01*
X166625302Y-63272811D01*
X167090849Y-63583880D01*
X167640000Y-63693113D01*
X168189151Y-63583880D01*
X168654698Y-63272811D01*
X168910000Y-62890725D01*
X169165302Y-63272811D01*
X169630849Y-63583880D01*
X170180000Y-63693113D01*
X170729151Y-63583880D01*
X171194698Y-63272811D01*
X171291101Y-63128535D01*
X171316838Y-63265317D01*
X171455910Y-63481441D01*
X171668110Y-63626431D01*
X171920000Y-63677440D01*
X173520000Y-63677440D01*
X173755317Y-63633162D01*
X173971441Y-63494090D01*
X174116431Y-63281890D01*
X174167440Y-63030000D01*
X174167440Y-61430000D01*
X174123162Y-61194683D01*
X173984090Y-60978559D01*
X173771890Y-60833569D01*
X173520000Y-60782560D01*
X171920000Y-60782560D01*
X171684683Y-60826838D01*
X171468559Y-60965910D01*
X171323569Y-61178110D01*
X171292185Y-61333089D01*
X171194698Y-61187189D01*
X170729151Y-60876120D01*
X170180000Y-60766887D01*
X169630849Y-60876120D01*
X169165302Y-61187189D01*
X168910000Y-61569275D01*
X168654698Y-61187189D01*
X168189151Y-60876120D01*
X167640000Y-60766887D01*
X167090849Y-60876120D01*
X166625302Y-61187189D01*
X166370000Y-61569275D01*
X166114698Y-61187189D01*
X165649151Y-60876120D01*
X165100000Y-60766887D01*
X164550849Y-60876120D01*
X164085302Y-61187189D01*
X163830000Y-61569275D01*
X163574698Y-61187189D01*
X163109151Y-60876120D01*
X163047018Y-60863761D01*
X163214454Y-60855778D01*
X163615005Y-60689864D01*
X163689139Y-60443745D01*
X162861000Y-59615605D01*
X162032861Y-60443745D01*
X162106995Y-60689864D01*
X162406325Y-60797455D01*
X162010849Y-60876120D01*
X161545302Y-61187189D01*
X161290000Y-61569275D01*
X161034698Y-61187189D01*
X160569151Y-60876120D01*
X160020000Y-60766887D01*
X159470849Y-60876120D01*
X159005302Y-61187189D01*
X158750000Y-61569275D01*
X158494698Y-61187189D01*
X158029151Y-60876120D01*
X158004039Y-60871125D01*
X158145187Y-60871248D01*
X158672800Y-60653243D01*
X159076824Y-60249923D01*
X159295750Y-59722691D01*
X159296189Y-59219223D01*
X161414035Y-59219223D01*
X161441222Y-59789454D01*
X161607136Y-60190005D01*
X161853255Y-60264139D01*
X162681395Y-59436000D01*
X163040605Y-59436000D01*
X163868745Y-60264139D01*
X164114864Y-60190005D01*
X164307965Y-59652777D01*
X164280778Y-59082546D01*
X164114864Y-58681995D01*
X163868745Y-58607861D01*
X163040605Y-59436000D01*
X162681395Y-59436000D01*
X161853255Y-58607861D01*
X161607136Y-58681995D01*
X161414035Y-59219223D01*
X159296189Y-59219223D01*
X159296248Y-59151813D01*
X159078243Y-58624200D01*
X158882640Y-58428255D01*
X162032861Y-58428255D01*
X162861000Y-59256395D01*
X163689139Y-58428255D01*
X163615005Y-58182136D01*
X163077777Y-57989035D01*
X162507546Y-58016222D01*
X162106995Y-58182136D01*
X162032861Y-58428255D01*
X158882640Y-58428255D01*
X158674923Y-58220176D01*
X158608128Y-58192440D01*
X158799800Y-58113243D01*
X159203824Y-57709923D01*
X159297761Y-57483697D01*
X174694708Y-57483697D01*
X174950694Y-58103229D01*
X175424278Y-58577640D01*
X176043362Y-58834707D01*
X176713697Y-58835292D01*
X177333229Y-58579306D01*
X177807640Y-58105722D01*
X178064707Y-57486638D01*
X178065242Y-56873526D01*
X181184381Y-56873526D01*
X181207651Y-57543456D01*
X181419255Y-58054313D01*
X181691297Y-58159098D01*
X182700395Y-57150000D01*
X181691297Y-56140902D01*
X181419255Y-56245687D01*
X181184381Y-56873526D01*
X178065242Y-56873526D01*
X178065292Y-56816303D01*
X177809306Y-56196771D01*
X177335722Y-55722360D01*
X176716638Y-55465293D01*
X176046303Y-55464708D01*
X175426771Y-55720694D01*
X174952360Y-56194278D01*
X174695293Y-56813362D01*
X174694708Y-57483697D01*
X159297761Y-57483697D01*
X159422750Y-57182691D01*
X159423248Y-56611813D01*
X159205243Y-56084200D01*
X158801923Y-55680176D01*
X158274691Y-55461250D01*
X157703813Y-55460752D01*
X157176200Y-55678757D01*
X156772176Y-56082077D01*
X156553250Y-56609309D01*
X156552752Y-57180187D01*
X156770757Y-57707800D01*
X157174077Y-58111824D01*
X157240872Y-58139560D01*
X157049200Y-58218757D01*
X156645176Y-58622077D01*
X156426250Y-59149309D01*
X156425752Y-59720187D01*
X156643757Y-60247800D01*
X157047077Y-60651824D01*
X157374647Y-60787843D01*
X156930849Y-60876120D01*
X156465302Y-61187189D01*
X156195014Y-61591703D01*
X156092389Y-61374866D01*
X155677423Y-60998959D01*
X155289039Y-60838096D01*
X155067000Y-60960085D01*
X155067000Y-62103000D01*
X155087000Y-62103000D01*
X155087000Y-62357000D01*
X155067000Y-62357000D01*
X155067000Y-63499915D01*
X155289039Y-63621904D01*
X155677423Y-63461041D01*
X156092389Y-63085134D01*
X156195014Y-62868297D01*
X156465302Y-63272811D01*
X156595000Y-63359473D01*
X156595000Y-65296000D01*
X156368750Y-65296000D01*
X156210000Y-65454750D01*
X156210000Y-66289000D01*
X156230000Y-66289000D01*
X156230000Y-66543000D01*
X156210000Y-66543000D01*
X156210000Y-66563000D01*
X155956000Y-66563000D01*
X155956000Y-66543000D01*
X154971750Y-66543000D01*
X154839750Y-66675000D01*
X152146000Y-66675000D01*
X152096590Y-66685006D01*
X152056197Y-66712197D01*
X150659197Y-68109197D01*
X150631334Y-68151211D01*
X150622000Y-68199000D01*
X150622000Y-68638341D01*
X150409151Y-68496120D01*
X149860000Y-68386887D01*
X149310849Y-68496120D01*
X148845302Y-68807189D01*
X148590000Y-69189275D01*
X148334698Y-68807189D01*
X147869151Y-68496120D01*
X147320000Y-68386887D01*
X146770849Y-68496120D01*
X146305302Y-68807189D01*
X146050000Y-69189275D01*
X145794698Y-68807189D01*
X145329151Y-68496120D01*
X144780000Y-68386887D01*
X144230849Y-68496120D01*
X143765302Y-68807189D01*
X143510000Y-69189275D01*
X143254698Y-68807189D01*
X142789151Y-68496120D01*
X142240000Y-68386887D01*
X141690849Y-68496120D01*
X141225302Y-68807189D01*
X140970000Y-69189275D01*
X140714698Y-68807189D01*
X140249151Y-68496120D01*
X139700000Y-68386887D01*
X139150849Y-68496120D01*
X138685302Y-68807189D01*
X138374233Y-69272736D01*
X138265000Y-69821887D01*
X138265000Y-69878113D01*
X138374233Y-70427264D01*
X138685302Y-70892811D01*
X139150849Y-71203880D01*
X139700000Y-71313113D01*
X140249151Y-71203880D01*
X140714698Y-70892811D01*
X140970000Y-70510725D01*
X141225302Y-70892811D01*
X141690849Y-71203880D01*
X142240000Y-71313113D01*
X142789151Y-71203880D01*
X143254698Y-70892811D01*
X143510000Y-70510725D01*
X143765302Y-70892811D01*
X144230849Y-71203880D01*
X144780000Y-71313113D01*
X145329151Y-71203880D01*
X145794698Y-70892811D01*
X146050000Y-70510725D01*
X146305302Y-70892811D01*
X146770849Y-71203880D01*
X147320000Y-71313113D01*
X147869151Y-71203880D01*
X148334698Y-70892811D01*
X148590000Y-70510725D01*
X148845302Y-70892811D01*
X149310849Y-71203880D01*
X149860000Y-71313113D01*
X149864000Y-71312317D01*
X149864000Y-74019741D01*
X149860000Y-74041000D01*
X149860000Y-74422000D01*
X138430000Y-74422000D01*
X138380590Y-74432006D01*
X138340197Y-74459197D01*
X138226895Y-74572499D01*
X138058210Y-74685210D01*
X138058208Y-74685213D01*
X136670420Y-76073000D01*
X133362440Y-76073000D01*
X133362440Y-75202000D01*
X133318162Y-74966683D01*
X133179090Y-74750559D01*
X132966890Y-74605569D01*
X132715000Y-74554560D01*
X131445000Y-74554560D01*
X131209683Y-74598838D01*
X130993559Y-74737910D01*
X130949768Y-74802000D01*
X130933000Y-74802000D01*
X130933000Y-72971527D01*
X131059077Y-73097824D01*
X131586309Y-73316750D01*
X132157187Y-73317248D01*
X132684800Y-73099243D01*
X133088824Y-72695923D01*
X133307750Y-72168691D01*
X133308248Y-71597813D01*
X133090243Y-71070200D01*
X132686923Y-70666176D01*
X132159691Y-70447250D01*
X131941026Y-70447059D01*
X131792406Y-70347755D01*
X131492000Y-70288000D01*
X131191594Y-70347755D01*
X130936921Y-70517921D01*
X130933000Y-70523789D01*
X130933000Y-69245187D01*
X132676752Y-69245187D01*
X132894757Y-69772800D01*
X133298077Y-70176824D01*
X133825309Y-70395750D01*
X134396187Y-70396248D01*
X134923800Y-70178243D01*
X135327824Y-69774923D01*
X135546750Y-69247691D01*
X135547248Y-68676813D01*
X135329243Y-68149200D01*
X134925923Y-67745176D01*
X134398691Y-67526250D01*
X133827813Y-67525752D01*
X133300200Y-67743757D01*
X132896176Y-68147077D01*
X132677250Y-68674309D01*
X132676752Y-69245187D01*
X130933000Y-69245187D01*
X130933000Y-66070187D01*
X132676752Y-66070187D01*
X132894757Y-66597800D01*
X133298077Y-67001824D01*
X133825309Y-67220750D01*
X134396187Y-67221248D01*
X134923800Y-67003243D01*
X135327824Y-66599923D01*
X135546750Y-66072691D01*
X135546983Y-65804690D01*
X154813000Y-65804690D01*
X154813000Y-66130250D01*
X154971750Y-66289000D01*
X155956000Y-66289000D01*
X155956000Y-65454750D01*
X155797250Y-65296000D01*
X155321691Y-65296000D01*
X155088302Y-65392673D01*
X154909673Y-65571301D01*
X154813000Y-65804690D01*
X135546983Y-65804690D01*
X135547248Y-65501813D01*
X135329243Y-64974200D01*
X134925923Y-64570176D01*
X134398691Y-64351250D01*
X133827813Y-64350752D01*
X133300200Y-64568757D01*
X132896176Y-64972077D01*
X132677250Y-65499309D01*
X132676752Y-66070187D01*
X130933000Y-66070187D01*
X130933000Y-63993580D01*
X131226040Y-63700539D01*
X131445000Y-63744093D01*
X132013285Y-63631054D01*
X132495054Y-63309147D01*
X132715000Y-62979974D01*
X132934946Y-63309147D01*
X133416715Y-63631054D01*
X133985000Y-63744093D01*
X134553285Y-63631054D01*
X135035054Y-63309147D01*
X135356961Y-62827378D01*
X135470000Y-62259093D01*
X135470000Y-62201887D01*
X138265000Y-62201887D01*
X138265000Y-62258113D01*
X138374233Y-62807264D01*
X138685302Y-63272811D01*
X139150849Y-63583880D01*
X139700000Y-63693113D01*
X140249151Y-63583880D01*
X140714698Y-63272811D01*
X140970000Y-62890725D01*
X141225302Y-63272811D01*
X141690849Y-63583880D01*
X142240000Y-63693113D01*
X142789151Y-63583880D01*
X143254698Y-63272811D01*
X143510000Y-62890725D01*
X143765302Y-63272811D01*
X144230849Y-63583880D01*
X144780000Y-63693113D01*
X145329151Y-63583880D01*
X145794698Y-63272811D01*
X146050000Y-62890725D01*
X146305302Y-63272811D01*
X146770849Y-63583880D01*
X147320000Y-63693113D01*
X147869151Y-63583880D01*
X148334698Y-63272811D01*
X148590000Y-62890725D01*
X148845302Y-63272811D01*
X149310849Y-63583880D01*
X149860000Y-63693113D01*
X150409151Y-63583880D01*
X150874698Y-63272811D01*
X151130000Y-62890725D01*
X151385302Y-63272811D01*
X151850849Y-63583880D01*
X152400000Y-63693113D01*
X152949151Y-63583880D01*
X153414698Y-63272811D01*
X153684986Y-62868297D01*
X153787611Y-63085134D01*
X154202577Y-63461041D01*
X154590961Y-63621904D01*
X154813000Y-63499915D01*
X154813000Y-62357000D01*
X154793000Y-62357000D01*
X154793000Y-62103000D01*
X154813000Y-62103000D01*
X154813000Y-60960085D01*
X154590961Y-60838096D01*
X154202577Y-60998959D01*
X153787611Y-61374866D01*
X153684986Y-61591703D01*
X153414698Y-61187189D01*
X152949151Y-60876120D01*
X152400000Y-60766887D01*
X151850849Y-60876120D01*
X151385302Y-61187189D01*
X151130000Y-61569275D01*
X150874698Y-61187189D01*
X150409151Y-60876120D01*
X149860000Y-60766887D01*
X149310849Y-60876120D01*
X148845302Y-61187189D01*
X148590000Y-61569275D01*
X148334698Y-61187189D01*
X147869151Y-60876120D01*
X147320000Y-60766887D01*
X146770849Y-60876120D01*
X146305302Y-61187189D01*
X146050000Y-61569275D01*
X145794698Y-61187189D01*
X145329151Y-60876120D01*
X144780000Y-60766887D01*
X144230849Y-60876120D01*
X143765302Y-61187189D01*
X143510000Y-61569275D01*
X143254698Y-61187189D01*
X142789151Y-60876120D01*
X142240000Y-60766887D01*
X141690849Y-60876120D01*
X141225302Y-61187189D01*
X140970000Y-61569275D01*
X140714698Y-61187189D01*
X140249151Y-60876120D01*
X139700000Y-60766887D01*
X139150849Y-60876120D01*
X138685302Y-61187189D01*
X138374233Y-61652736D01*
X138265000Y-62201887D01*
X135470000Y-62201887D01*
X135470000Y-62200907D01*
X135356961Y-61632622D01*
X135159433Y-61337000D01*
X136397995Y-61337000D01*
X136398000Y-61337001D01*
X136680484Y-61280810D01*
X136736675Y-61269633D01*
X137023790Y-61077790D01*
X137046533Y-61055047D01*
X137188484Y-61026810D01*
X137244675Y-61015633D01*
X137531790Y-60823790D01*
X140423294Y-57932285D01*
X146896760Y-57932285D01*
X147107169Y-58441515D01*
X147496436Y-58831461D01*
X148005298Y-59042759D01*
X148556285Y-59043240D01*
X149065515Y-58832831D01*
X149269183Y-58629517D01*
X149930088Y-58629517D01*
X149998077Y-58870460D01*
X150517171Y-59055201D01*
X151067448Y-59027230D01*
X151445923Y-58870460D01*
X151513912Y-58629517D01*
X150722000Y-57837605D01*
X149930088Y-58629517D01*
X149269183Y-58629517D01*
X149455461Y-58443564D01*
X149495316Y-58347583D01*
X149509540Y-58381923D01*
X149750483Y-58449912D01*
X150542395Y-57658000D01*
X150901605Y-57658000D01*
X151693517Y-58449912D01*
X151934460Y-58381923D01*
X151947457Y-58345404D01*
X151987169Y-58441515D01*
X152376436Y-58831461D01*
X152885298Y-59042759D01*
X153436285Y-59043240D01*
X153945515Y-58832831D01*
X154335461Y-58443564D01*
X154546759Y-57934702D01*
X154547240Y-57383715D01*
X154336831Y-56874485D01*
X153947564Y-56484539D01*
X153438702Y-56273241D01*
X152887715Y-56272760D01*
X152378485Y-56483169D01*
X151988539Y-56872436D01*
X151948684Y-56968417D01*
X151934460Y-56934077D01*
X151693517Y-56866088D01*
X150901605Y-57658000D01*
X150542395Y-57658000D01*
X149750483Y-56866088D01*
X149509540Y-56934077D01*
X149496543Y-56970596D01*
X149456831Y-56874485D01*
X149269157Y-56686483D01*
X149930088Y-56686483D01*
X150722000Y-57478395D01*
X151513912Y-56686483D01*
X151445923Y-56445540D01*
X150926829Y-56260799D01*
X150376552Y-56288770D01*
X149998077Y-56445540D01*
X149930088Y-56686483D01*
X149269157Y-56686483D01*
X149067564Y-56484539D01*
X148558702Y-56273241D01*
X148007715Y-56272760D01*
X147498485Y-56483169D01*
X147108539Y-56872436D01*
X146897241Y-57381298D01*
X146896760Y-57932285D01*
X140423294Y-57932285D01*
X144604392Y-53751187D01*
X147154752Y-53751187D01*
X147372757Y-54278800D01*
X147776077Y-54682824D01*
X148303309Y-54901750D01*
X148874187Y-54902248D01*
X149401800Y-54684243D01*
X149611663Y-54474745D01*
X152761861Y-54474745D01*
X152835995Y-54720864D01*
X153373223Y-54913965D01*
X153943454Y-54886778D01*
X154344005Y-54720864D01*
X154418139Y-54474745D01*
X153590000Y-53646605D01*
X152761861Y-54474745D01*
X149611663Y-54474745D01*
X149805824Y-54280923D01*
X150024750Y-53753691D01*
X150025189Y-53250223D01*
X152143035Y-53250223D01*
X152170222Y-53820454D01*
X152336136Y-54221005D01*
X152582255Y-54295139D01*
X153410395Y-53467000D01*
X153769605Y-53467000D01*
X154597745Y-54295139D01*
X154843864Y-54221005D01*
X155036965Y-53683777D01*
X155009778Y-53113546D01*
X154922876Y-52903745D01*
X157159861Y-52903745D01*
X157233995Y-53149864D01*
X157771223Y-53342965D01*
X158341454Y-53315778D01*
X158742005Y-53149864D01*
X158816139Y-52903745D01*
X157988000Y-52075605D01*
X157159861Y-52903745D01*
X154922876Y-52903745D01*
X154843864Y-52712995D01*
X154597745Y-52638861D01*
X153769605Y-53467000D01*
X153410395Y-53467000D01*
X152582255Y-52638861D01*
X152336136Y-52712995D01*
X152143035Y-53250223D01*
X150025189Y-53250223D01*
X150025248Y-53182813D01*
X149807243Y-52655200D01*
X149611640Y-52459255D01*
X152761861Y-52459255D01*
X153590000Y-53287395D01*
X154418139Y-52459255D01*
X154344005Y-52213136D01*
X153806777Y-52020035D01*
X153236546Y-52047222D01*
X152835995Y-52213136D01*
X152761861Y-52459255D01*
X149611640Y-52459255D01*
X149403923Y-52251176D01*
X148876691Y-52032250D01*
X148305813Y-52031752D01*
X147778200Y-52249757D01*
X147374176Y-52653077D01*
X147155250Y-53180309D01*
X147154752Y-53751187D01*
X144604392Y-53751187D01*
X146676356Y-51679223D01*
X156541035Y-51679223D01*
X156568222Y-52249454D01*
X156734136Y-52650005D01*
X156980255Y-52724139D01*
X157808395Y-51896000D01*
X158167605Y-51896000D01*
X158995745Y-52724139D01*
X159241864Y-52650005D01*
X159434965Y-52112777D01*
X159407778Y-51542546D01*
X159241864Y-51141995D01*
X158995745Y-51067861D01*
X158167605Y-51896000D01*
X157808395Y-51896000D01*
X156980255Y-51067861D01*
X156734136Y-51141995D01*
X156541035Y-51679223D01*
X146676356Y-51679223D01*
X147467324Y-50888255D01*
X157159861Y-50888255D01*
X157988000Y-51716395D01*
X158816139Y-50888255D01*
X158742005Y-50642136D01*
X158204777Y-50449035D01*
X157634546Y-50476222D01*
X157233995Y-50642136D01*
X157159861Y-50888255D01*
X147467324Y-50888255D01*
X148702579Y-49653000D01*
X157875420Y-49653000D01*
X158669255Y-50446834D01*
X158718883Y-50566943D01*
X158981673Y-50830192D01*
X159325201Y-50972838D01*
X159697167Y-50973162D01*
X160040943Y-50831117D01*
X160304192Y-50568327D01*
X160446838Y-50224799D01*
X160447162Y-49852833D01*
X160305117Y-49509057D01*
X160042327Y-49245808D01*
X159921013Y-49195434D01*
X158867790Y-48142210D01*
X158797135Y-48095000D01*
X158580675Y-47950367D01*
X158524484Y-47939190D01*
X158242000Y-47882999D01*
X158241995Y-47883000D01*
X148336005Y-47883000D01*
X148336000Y-47882999D01*
X148053516Y-47939190D01*
X147997325Y-47950367D01*
X147710210Y-48142210D01*
X147710208Y-48142213D01*
X142589085Y-53263336D01*
X142563778Y-52732546D01*
X142397864Y-52331995D01*
X142151745Y-52257861D01*
X141323605Y-53086000D01*
X141337748Y-53100142D01*
X141158142Y-53279748D01*
X141144000Y-53265605D01*
X140315861Y-54093745D01*
X140389995Y-54339864D01*
X140927223Y-54532965D01*
X141339092Y-54513328D01*
X136511467Y-59340953D01*
X136313325Y-59380367D01*
X136034007Y-59567000D01*
X131445005Y-59567000D01*
X131445000Y-59566999D01*
X131444995Y-59567000D01*
X128509579Y-59567000D01*
X126926146Y-57983566D01*
X126945824Y-57963923D01*
X127164750Y-57436691D01*
X127165228Y-56887745D01*
X128751861Y-56887745D01*
X128825995Y-57133864D01*
X129363223Y-57326965D01*
X129933454Y-57299778D01*
X130334005Y-57133864D01*
X130408139Y-56887745D01*
X129580000Y-56059605D01*
X128751861Y-56887745D01*
X127165228Y-56887745D01*
X127165248Y-56865813D01*
X126947243Y-56338200D01*
X126543923Y-55934176D01*
X126016691Y-55715250D01*
X125445813Y-55714752D01*
X124918200Y-55932757D01*
X124514176Y-56336077D01*
X124295250Y-56863309D01*
X124294752Y-57434187D01*
X124512757Y-57961800D01*
X124908500Y-58358234D01*
X124912367Y-58377675D01*
X125103475Y-58663690D01*
X125104210Y-58664790D01*
X125363276Y-58923856D01*
X124918200Y-59107757D01*
X124514176Y-59511077D01*
X124295250Y-60038309D01*
X124294752Y-60609187D01*
X124512757Y-61136800D01*
X124916077Y-61540824D01*
X125443309Y-61759750D01*
X126014187Y-61760248D01*
X126043131Y-61748289D01*
X126469000Y-62174157D01*
X126469000Y-62992000D01*
X126528755Y-63292407D01*
X126698921Y-63547079D01*
X128247000Y-65095158D01*
X128247000Y-71449581D01*
X128090243Y-71070200D01*
X127686923Y-70666176D01*
X127159691Y-70447250D01*
X126588813Y-70446752D01*
X126061200Y-70664757D01*
X125657176Y-71068077D01*
X125438250Y-71595309D01*
X125437752Y-72166187D01*
X125655757Y-72693800D01*
X126059077Y-73097824D01*
X126586309Y-73316750D01*
X127157187Y-73317248D01*
X127684800Y-73099243D01*
X128088824Y-72695923D01*
X128247000Y-72314993D01*
X128247000Y-75946000D01*
X128306755Y-76246407D01*
X128476921Y-76501079D01*
X128604847Y-76629005D01*
X128604838Y-76639167D01*
X128746883Y-76982943D01*
X129009673Y-77246192D01*
X129353201Y-77388838D01*
X129725167Y-77389162D01*
X130068943Y-77247117D01*
X130332192Y-76984327D01*
X130474838Y-76640799D01*
X130474898Y-76572000D01*
X130797560Y-76572000D01*
X130797560Y-77452000D01*
X130841838Y-77687317D01*
X130872863Y-77735531D01*
X130720197Y-77888197D01*
X130692334Y-77930211D01*
X130683000Y-77978000D01*
X130683000Y-80339957D01*
X130590054Y-80200853D01*
X130108285Y-79878946D01*
X129540000Y-79765907D01*
X128971715Y-79878946D01*
X128489946Y-80200853D01*
X128270000Y-80530026D01*
X128050054Y-80200853D01*
X127568285Y-79878946D01*
X127000000Y-79765907D01*
X126431715Y-79878946D01*
X125949946Y-80200853D01*
X125730000Y-80530026D01*
X125510054Y-80200853D01*
X125028285Y-79878946D01*
X124460000Y-79765907D01*
X123891715Y-79878946D01*
X123409946Y-80200853D01*
X123190000Y-80530026D01*
X122970054Y-80200853D01*
X122488285Y-79878946D01*
X121920000Y-79765907D01*
X121351715Y-79878946D01*
X120869946Y-80200853D01*
X120842150Y-80242452D01*
X120833162Y-80194683D01*
X120694090Y-79978559D01*
X120481890Y-79833569D01*
X120230000Y-79782560D01*
X118530000Y-79782560D01*
X118294683Y-79826838D01*
X118078559Y-79965910D01*
X117933569Y-80178110D01*
X117882560Y-80430000D01*
X117882560Y-82130000D01*
X117926838Y-82365317D01*
X118065910Y-82581441D01*
X118278110Y-82726431D01*
X118530000Y-82777440D01*
X120230000Y-82777440D01*
X120465317Y-82733162D01*
X120681441Y-82594090D01*
X120826431Y-82381890D01*
X120840086Y-82314459D01*
X120869946Y-82359147D01*
X121351715Y-82681054D01*
X121920000Y-82794093D01*
X122488285Y-82681054D01*
X122970054Y-82359147D01*
X123190000Y-82029974D01*
X123409946Y-82359147D01*
X123891715Y-82681054D01*
X124460000Y-82794093D01*
X125028285Y-82681054D01*
X125510054Y-82359147D01*
X125730000Y-82029974D01*
X125949946Y-82359147D01*
X126431715Y-82681054D01*
X127000000Y-82794093D01*
X127568285Y-82681054D01*
X128050054Y-82359147D01*
X128270000Y-82029974D01*
X128489946Y-82359147D01*
X128971715Y-82681054D01*
X129540000Y-82794093D01*
X130108285Y-82681054D01*
X130590054Y-82359147D01*
X130683000Y-82220043D01*
X130683000Y-84380000D01*
X111200000Y-84380000D01*
X111200000Y-81772128D01*
X111814570Y-81772128D01*
X112192091Y-82685800D01*
X112890523Y-83385452D01*
X113803534Y-83764568D01*
X114792128Y-83765430D01*
X115705800Y-83387909D01*
X116405452Y-82689477D01*
X116784568Y-81776466D01*
X116785430Y-80787872D01*
X116407909Y-79874200D01*
X115709477Y-79174548D01*
X114796466Y-78795432D01*
X113807872Y-78794570D01*
X112894200Y-79172091D01*
X112194548Y-79870523D01*
X111815432Y-80783534D01*
X111814570Y-81772128D01*
X111200000Y-81772128D01*
X111200000Y-76485750D01*
X112815000Y-76485750D01*
X112815000Y-77176310D01*
X112911673Y-77409699D01*
X113090302Y-77588327D01*
X113323691Y-77685000D01*
X114014250Y-77685000D01*
X114173000Y-77526250D01*
X114173000Y-76327000D01*
X114427000Y-76327000D01*
X114427000Y-77526250D01*
X114585750Y-77685000D01*
X115276309Y-77685000D01*
X115509698Y-77588327D01*
X115688327Y-77409699D01*
X115785000Y-77176310D01*
X115785000Y-76485750D01*
X115626250Y-76327000D01*
X114427000Y-76327000D01*
X114173000Y-76327000D01*
X112973750Y-76327000D01*
X112815000Y-76485750D01*
X111200000Y-76485750D01*
X111200000Y-75223690D01*
X112815000Y-75223690D01*
X112815000Y-75914250D01*
X112973750Y-76073000D01*
X114173000Y-76073000D01*
X114173000Y-73787000D01*
X114427000Y-73787000D01*
X114427000Y-76073000D01*
X115626250Y-76073000D01*
X115785000Y-75914250D01*
X115785000Y-75223690D01*
X115688327Y-74990301D01*
X115509698Y-74811673D01*
X115300122Y-74724864D01*
X115571645Y-74426924D01*
X115741476Y-74016890D01*
X115620155Y-73787000D01*
X114427000Y-73787000D01*
X114173000Y-73787000D01*
X112979845Y-73787000D01*
X112858524Y-74016890D01*
X113028355Y-74426924D01*
X113299878Y-74724864D01*
X113090302Y-74811673D01*
X112911673Y-74990301D01*
X112815000Y-75223690D01*
X111200000Y-75223690D01*
X111200000Y-73660000D01*
X121294907Y-73660000D01*
X121407946Y-74228285D01*
X121729853Y-74710054D01*
X122211622Y-75031961D01*
X122779907Y-75145000D01*
X122838093Y-75145000D01*
X123406378Y-75031961D01*
X123888147Y-74710054D01*
X124210054Y-74228285D01*
X124323093Y-73660000D01*
X124210054Y-73091715D01*
X123888147Y-72609946D01*
X123547447Y-72382298D01*
X123690358Y-72315183D01*
X124080645Y-71886924D01*
X124250476Y-71476890D01*
X124129155Y-71247000D01*
X122936000Y-71247000D01*
X122936000Y-71267000D01*
X122682000Y-71267000D01*
X122682000Y-71247000D01*
X121488845Y-71247000D01*
X121367524Y-71476890D01*
X121537355Y-71886924D01*
X121927642Y-72315183D01*
X122070553Y-72382298D01*
X121729853Y-72609946D01*
X121407946Y-73091715D01*
X121294907Y-73660000D01*
X111200000Y-73660000D01*
X111200000Y-63500000D01*
X112785907Y-63500000D01*
X112898946Y-64068285D01*
X113220853Y-64550054D01*
X113550026Y-64770000D01*
X113220853Y-64989946D01*
X112898946Y-65471715D01*
X112785907Y-66040000D01*
X112898946Y-66608285D01*
X113220853Y-67090054D01*
X113550026Y-67310000D01*
X113220853Y-67529946D01*
X112898946Y-68011715D01*
X112785907Y-68580000D01*
X112898946Y-69148285D01*
X113220853Y-69630054D01*
X113550026Y-69850000D01*
X113220853Y-70069946D01*
X112898946Y-70551715D01*
X112785907Y-71120000D01*
X112898946Y-71688285D01*
X113220853Y-72170054D01*
X113561553Y-72397702D01*
X113418642Y-72464817D01*
X113028355Y-72893076D01*
X112858524Y-73303110D01*
X112979845Y-73533000D01*
X114173000Y-73533000D01*
X114173000Y-73513000D01*
X114427000Y-73513000D01*
X114427000Y-73533000D01*
X115620155Y-73533000D01*
X115741476Y-73303110D01*
X115571645Y-72893076D01*
X115181358Y-72464817D01*
X115038447Y-72397702D01*
X115379147Y-72170054D01*
X115701054Y-71688285D01*
X115814093Y-71120000D01*
X115701054Y-70551715D01*
X115379147Y-70069946D01*
X115049974Y-69850000D01*
X115379147Y-69630054D01*
X115701054Y-69148285D01*
X115814093Y-68580000D01*
X121294907Y-68580000D01*
X121407946Y-69148285D01*
X121729853Y-69630054D01*
X122070553Y-69857702D01*
X121927642Y-69924817D01*
X121537355Y-70353076D01*
X121367524Y-70763110D01*
X121488845Y-70993000D01*
X122682000Y-70993000D01*
X122682000Y-70973000D01*
X122936000Y-70973000D01*
X122936000Y-70993000D01*
X124129155Y-70993000D01*
X124250476Y-70763110D01*
X124080645Y-70353076D01*
X123690358Y-69924817D01*
X123547447Y-69857702D01*
X123888147Y-69630054D01*
X124210054Y-69148285D01*
X124247307Y-68961000D01*
X125028887Y-68961000D01*
X125138120Y-69510151D01*
X125449189Y-69975698D01*
X125914736Y-70286767D01*
X126463887Y-70396000D01*
X126520113Y-70396000D01*
X127069264Y-70286767D01*
X127534811Y-69975698D01*
X127845880Y-69510151D01*
X127955113Y-68961000D01*
X127845880Y-68411849D01*
X127534811Y-67946302D01*
X127069264Y-67635233D01*
X126520113Y-67526000D01*
X126463887Y-67526000D01*
X125914736Y-67635233D01*
X125449189Y-67946302D01*
X125138120Y-68411849D01*
X125028887Y-68961000D01*
X124247307Y-68961000D01*
X124323093Y-68580000D01*
X124210054Y-68011715D01*
X123888147Y-67529946D01*
X123846548Y-67502150D01*
X123894317Y-67493162D01*
X124110441Y-67354090D01*
X124255431Y-67141890D01*
X124306440Y-66890000D01*
X124306440Y-65786000D01*
X125028887Y-65786000D01*
X125138120Y-66335151D01*
X125449189Y-66800698D01*
X125914736Y-67111767D01*
X126463887Y-67221000D01*
X126520113Y-67221000D01*
X127069264Y-67111767D01*
X127534811Y-66800698D01*
X127845880Y-66335151D01*
X127955113Y-65786000D01*
X127845880Y-65236849D01*
X127534811Y-64771302D01*
X127069264Y-64460233D01*
X126520113Y-64351000D01*
X126463887Y-64351000D01*
X125914736Y-64460233D01*
X125449189Y-64771302D01*
X125138120Y-65236849D01*
X125028887Y-65786000D01*
X124306440Y-65786000D01*
X124306440Y-65190000D01*
X124262162Y-64954683D01*
X124123090Y-64738559D01*
X123910890Y-64593569D01*
X123659000Y-64542560D01*
X121959000Y-64542560D01*
X121723683Y-64586838D01*
X121507559Y-64725910D01*
X121362569Y-64938110D01*
X121311560Y-65190000D01*
X121311560Y-66890000D01*
X121355838Y-67125317D01*
X121494910Y-67341441D01*
X121707110Y-67486431D01*
X121774541Y-67500086D01*
X121729853Y-67529946D01*
X121407946Y-68011715D01*
X121294907Y-68580000D01*
X115814093Y-68580000D01*
X115701054Y-68011715D01*
X115379147Y-67529946D01*
X115049974Y-67310000D01*
X115379147Y-67090054D01*
X115701054Y-66608285D01*
X115814093Y-66040000D01*
X115701054Y-65471715D01*
X115379147Y-64989946D01*
X115049974Y-64770000D01*
X115379147Y-64550054D01*
X115701054Y-64068285D01*
X115814093Y-63500000D01*
X115701054Y-62931715D01*
X115379147Y-62449946D01*
X114897378Y-62128039D01*
X114329093Y-62015000D01*
X114270907Y-62015000D01*
X113702622Y-62128039D01*
X113220853Y-62449946D01*
X112898946Y-62931715D01*
X112785907Y-63500000D01*
X111200000Y-63500000D01*
X111200000Y-61225000D01*
X111474250Y-61225000D01*
X111633000Y-61066250D01*
X111633000Y-59817000D01*
X111613000Y-59817000D01*
X111613000Y-59563000D01*
X111633000Y-59563000D01*
X111633000Y-58313750D01*
X111887000Y-58313750D01*
X111887000Y-59563000D01*
X111907000Y-59563000D01*
X111907000Y-59817000D01*
X111887000Y-59817000D01*
X111887000Y-61066250D01*
X112045750Y-61225000D01*
X112786309Y-61225000D01*
X113019698Y-61128327D01*
X113198327Y-60949699D01*
X113254119Y-60815006D01*
X113429357Y-60990551D01*
X113993330Y-61224733D01*
X114603991Y-61225265D01*
X115168371Y-60992068D01*
X115600551Y-60560643D01*
X115698398Y-60325000D01*
X116646887Y-60325000D01*
X116756120Y-60874151D01*
X117067189Y-61339698D01*
X117532736Y-61650767D01*
X118081887Y-61760000D01*
X118138113Y-61760000D01*
X118687264Y-61650767D01*
X119152811Y-61339698D01*
X119463880Y-60874151D01*
X119573113Y-60325000D01*
X119463880Y-59775849D01*
X119152811Y-59310302D01*
X118687264Y-58999233D01*
X118138113Y-58890000D01*
X118081887Y-58890000D01*
X117532736Y-58999233D01*
X117067189Y-59310302D01*
X116756120Y-59775849D01*
X116646887Y-60325000D01*
X115698398Y-60325000D01*
X115834733Y-59996670D01*
X115835265Y-59386009D01*
X115602068Y-58821629D01*
X115170643Y-58389449D01*
X114606670Y-58155267D01*
X113996009Y-58154735D01*
X113431629Y-58387932D01*
X113254159Y-58565092D01*
X113198327Y-58430301D01*
X113019698Y-58251673D01*
X112786309Y-58155000D01*
X112045750Y-58155000D01*
X111887000Y-58313750D01*
X111633000Y-58313750D01*
X111474250Y-58155000D01*
X111200000Y-58155000D01*
X111200000Y-57150000D01*
X116646887Y-57150000D01*
X116756120Y-57699151D01*
X117067189Y-58164698D01*
X117532736Y-58475767D01*
X118081887Y-58585000D01*
X118138113Y-58585000D01*
X118687264Y-58475767D01*
X119152811Y-58164698D01*
X119463880Y-57699151D01*
X119573113Y-57150000D01*
X119463880Y-56600849D01*
X119152811Y-56135302D01*
X118687264Y-55824233D01*
X118138113Y-55715000D01*
X118081887Y-55715000D01*
X117532736Y-55824233D01*
X117067189Y-56135302D01*
X116756120Y-56600849D01*
X116646887Y-57150000D01*
X111200000Y-57150000D01*
X111200000Y-56780000D01*
X111474250Y-56780000D01*
X111633000Y-56621250D01*
X111633000Y-55372000D01*
X111613000Y-55372000D01*
X111613000Y-55118000D01*
X111633000Y-55118000D01*
X111633000Y-53868750D01*
X111887000Y-53868750D01*
X111887000Y-55118000D01*
X111907000Y-55118000D01*
X111907000Y-55372000D01*
X111887000Y-55372000D01*
X111887000Y-56621250D01*
X112045750Y-56780000D01*
X112786309Y-56780000D01*
X113019698Y-56683327D01*
X113198327Y-56504699D01*
X113254119Y-56370006D01*
X113429357Y-56545551D01*
X113993330Y-56779733D01*
X114603991Y-56780265D01*
X115168371Y-56547068D01*
X115600551Y-56115643D01*
X115788412Y-55663223D01*
X128133035Y-55663223D01*
X128160222Y-56233454D01*
X128326136Y-56634005D01*
X128572255Y-56708139D01*
X129400395Y-55880000D01*
X129759605Y-55880000D01*
X130587745Y-56708139D01*
X130635167Y-56693855D01*
X130676838Y-56915317D01*
X130815910Y-57131441D01*
X131028110Y-57276431D01*
X131280000Y-57327440D01*
X132880000Y-57327440D01*
X133115317Y-57283162D01*
X133331441Y-57144090D01*
X133476431Y-56931890D01*
X133527440Y-56680000D01*
X133527440Y-55080000D01*
X133483162Y-54844683D01*
X133344090Y-54628559D01*
X133131890Y-54483569D01*
X132880000Y-54432560D01*
X131280000Y-54432560D01*
X131044683Y-54476838D01*
X130828559Y-54615910D01*
X130683569Y-54828110D01*
X130635354Y-55066201D01*
X130587745Y-55051861D01*
X129759605Y-55880000D01*
X129400395Y-55880000D01*
X128572255Y-55051861D01*
X128326136Y-55125995D01*
X128133035Y-55663223D01*
X115788412Y-55663223D01*
X115834733Y-55551670D01*
X115834913Y-55345000D01*
X117364250Y-55345000D01*
X117523000Y-55186250D01*
X117523000Y-53087000D01*
X117777000Y-53087000D01*
X117777000Y-55186250D01*
X117935750Y-55345000D01*
X119526309Y-55345000D01*
X119759698Y-55248327D01*
X119938327Y-55069699D01*
X120020111Y-54872255D01*
X128751861Y-54872255D01*
X129580000Y-55700395D01*
X130408139Y-54872255D01*
X130334005Y-54626136D01*
X129796777Y-54433035D01*
X129226546Y-54460222D01*
X128825995Y-54626136D01*
X128751861Y-54872255D01*
X120020111Y-54872255D01*
X120035000Y-54836310D01*
X120035000Y-53245750D01*
X119876250Y-53087000D01*
X117777000Y-53087000D01*
X117523000Y-53087000D01*
X115423750Y-53087000D01*
X115265000Y-53245750D01*
X115265000Y-54038971D01*
X115170643Y-53944449D01*
X114606670Y-53710267D01*
X113996009Y-53709735D01*
X113431629Y-53942932D01*
X113254159Y-54120092D01*
X113198327Y-53985301D01*
X113019698Y-53806673D01*
X112786309Y-53710000D01*
X112045750Y-53710000D01*
X111887000Y-53868750D01*
X111633000Y-53868750D01*
X111474250Y-53710000D01*
X111200000Y-53710000D01*
X111200000Y-48545750D01*
X112265000Y-48545750D01*
X112265000Y-50136310D01*
X112361673Y-50369699D01*
X112540302Y-50548327D01*
X112773691Y-50645000D01*
X114364250Y-50645000D01*
X114523000Y-50486250D01*
X114523000Y-48387000D01*
X114777000Y-48387000D01*
X114777000Y-50486250D01*
X114935750Y-50645000D01*
X115604696Y-50645000D01*
X115540302Y-50671673D01*
X115361673Y-50850301D01*
X115265000Y-51083690D01*
X115265000Y-52674250D01*
X115423750Y-52833000D01*
X117523000Y-52833000D01*
X117523000Y-50733750D01*
X117777000Y-50733750D01*
X117777000Y-52833000D01*
X119876250Y-52833000D01*
X120035000Y-52674250D01*
X120035000Y-51083690D01*
X119938327Y-50850301D01*
X119759698Y-50671673D01*
X119725337Y-50657440D01*
X122400000Y-50657440D01*
X122635317Y-50613162D01*
X122739689Y-50546000D01*
X134578928Y-50546000D01*
X134692519Y-51117059D01*
X135015998Y-51601180D01*
X135384262Y-51847246D01*
X135332200Y-51868757D01*
X134928176Y-52272077D01*
X134709250Y-52799309D01*
X134708752Y-53370187D01*
X134926757Y-53897800D01*
X135330077Y-54301824D01*
X135857309Y-54520750D01*
X136428187Y-54521248D01*
X136955800Y-54303243D01*
X137359824Y-53899923D01*
X137578750Y-53372691D01*
X137579189Y-52869223D01*
X139697035Y-52869223D01*
X139724222Y-53439454D01*
X139890136Y-53840005D01*
X140136255Y-53914139D01*
X140964395Y-53086000D01*
X140136255Y-52257861D01*
X139890136Y-52331995D01*
X139697035Y-52869223D01*
X137579189Y-52869223D01*
X137579248Y-52801813D01*
X137361243Y-52274200D01*
X137165640Y-52078255D01*
X140315861Y-52078255D01*
X141144000Y-52906395D01*
X141972139Y-52078255D01*
X141898005Y-51832136D01*
X141360777Y-51639035D01*
X140790546Y-51666222D01*
X140389995Y-51832136D01*
X140315861Y-52078255D01*
X137165640Y-52078255D01*
X136957923Y-51870176D01*
X136903341Y-51847511D01*
X137272002Y-51601180D01*
X137595481Y-51117059D01*
X137709072Y-50546000D01*
X137595481Y-49974941D01*
X137272002Y-49490820D01*
X137125574Y-49392980D01*
X137440628Y-49066856D01*
X137635413Y-48618029D01*
X137514189Y-48387000D01*
X136271000Y-48387000D01*
X136271000Y-48407000D01*
X136017000Y-48407000D01*
X136017000Y-48387000D01*
X134773811Y-48387000D01*
X134652587Y-48618029D01*
X134847372Y-49066856D01*
X135162426Y-49392980D01*
X135015998Y-49490820D01*
X134692519Y-49974941D01*
X134578928Y-50546000D01*
X122739689Y-50546000D01*
X122851441Y-50474090D01*
X122996431Y-50261890D01*
X123047440Y-50010000D01*
X123047440Y-49902745D01*
X128751861Y-49902745D01*
X128825995Y-50148864D01*
X129363223Y-50341965D01*
X129933454Y-50314778D01*
X130334005Y-50148864D01*
X130408139Y-49902745D01*
X129580000Y-49074605D01*
X128751861Y-49902745D01*
X123047440Y-49902745D01*
X123047440Y-48678223D01*
X128133035Y-48678223D01*
X128160222Y-49248454D01*
X128326136Y-49649005D01*
X128572255Y-49723139D01*
X129400395Y-48895000D01*
X129759605Y-48895000D01*
X130587745Y-49723139D01*
X130635167Y-49708855D01*
X130676838Y-49930317D01*
X130815910Y-50146441D01*
X131028110Y-50291431D01*
X131280000Y-50342440D01*
X132880000Y-50342440D01*
X133115317Y-50298162D01*
X133331441Y-50159090D01*
X133476431Y-49946890D01*
X133527440Y-49695000D01*
X133527440Y-48095000D01*
X133483162Y-47859683D01*
X133344090Y-47643559D01*
X133131890Y-47498569D01*
X132880000Y-47447560D01*
X131280000Y-47447560D01*
X131044683Y-47491838D01*
X130828559Y-47630910D01*
X130683569Y-47843110D01*
X130635354Y-48081201D01*
X130587745Y-48066861D01*
X129759605Y-48895000D01*
X129400395Y-48895000D01*
X128572255Y-48066861D01*
X128326136Y-48140995D01*
X128133035Y-48678223D01*
X123047440Y-48678223D01*
X123047440Y-47887255D01*
X128751861Y-47887255D01*
X128849228Y-47984623D01*
X128854755Y-48012406D01*
X129024921Y-48267079D01*
X129279594Y-48437245D01*
X129307377Y-48442771D01*
X129580000Y-48715395D01*
X129852623Y-48442771D01*
X129880406Y-48437245D01*
X130135079Y-48267079D01*
X130305245Y-48012406D01*
X130310772Y-47984623D01*
X130408139Y-47887255D01*
X130361162Y-47731295D01*
X130365000Y-47712000D01*
X130365000Y-47625000D01*
X130305245Y-47324594D01*
X130135079Y-47069921D01*
X129880406Y-46899755D01*
X129580000Y-46840000D01*
X129279594Y-46899755D01*
X129024921Y-47069921D01*
X128854755Y-47324594D01*
X128795000Y-47625000D01*
X128795000Y-47712000D01*
X128798838Y-47731295D01*
X128751861Y-47887255D01*
X123047440Y-47887255D01*
X123047440Y-46510000D01*
X123003162Y-46274683D01*
X122864090Y-46058559D01*
X122651890Y-45913569D01*
X122400000Y-45862560D01*
X118900000Y-45862560D01*
X118664683Y-45906838D01*
X118448559Y-46045910D01*
X118303569Y-46258110D01*
X118252560Y-46510000D01*
X118252560Y-50010000D01*
X118296838Y-50245317D01*
X118435910Y-50461441D01*
X118602109Y-50575000D01*
X117935750Y-50575000D01*
X117777000Y-50733750D01*
X117523000Y-50733750D01*
X117364250Y-50575000D01*
X116695304Y-50575000D01*
X116759698Y-50548327D01*
X116938327Y-50369699D01*
X117035000Y-50136310D01*
X117035000Y-48545750D01*
X116876250Y-48387000D01*
X114777000Y-48387000D01*
X114523000Y-48387000D01*
X112423750Y-48387000D01*
X112265000Y-48545750D01*
X111200000Y-48545750D01*
X111200000Y-46383690D01*
X112265000Y-46383690D01*
X112265000Y-47974250D01*
X112423750Y-48133000D01*
X114523000Y-48133000D01*
X114523000Y-46033750D01*
X114777000Y-46033750D01*
X114777000Y-48133000D01*
X116876250Y-48133000D01*
X117035000Y-47974250D01*
X117035000Y-46383690D01*
X116938327Y-46150301D01*
X116759698Y-45971673D01*
X116526309Y-45875000D01*
X114935750Y-45875000D01*
X114777000Y-46033750D01*
X114523000Y-46033750D01*
X114364250Y-45875000D01*
X112773691Y-45875000D01*
X112540302Y-45971673D01*
X112361673Y-46150301D01*
X112265000Y-46383690D01*
X111200000Y-46383690D01*
X111200000Y-45116750D01*
X134596560Y-45116750D01*
X134596560Y-46831250D01*
X134640838Y-47066567D01*
X134779910Y-47282691D01*
X134919740Y-47378233D01*
X134847372Y-47453144D01*
X134652587Y-47901971D01*
X134773811Y-48133000D01*
X136017000Y-48133000D01*
X136017000Y-48113000D01*
X136271000Y-48113000D01*
X136271000Y-48133000D01*
X137514189Y-48133000D01*
X137635413Y-47901971D01*
X137440628Y-47453144D01*
X137367632Y-47377583D01*
X137495441Y-47295340D01*
X137640431Y-47083140D01*
X137691440Y-46831250D01*
X137691440Y-45116750D01*
X137647162Y-44881433D01*
X137508090Y-44665309D01*
X137295890Y-44520319D01*
X137044000Y-44469310D01*
X135244000Y-44469310D01*
X135008683Y-44513588D01*
X134792559Y-44652660D01*
X134647569Y-44864860D01*
X134596560Y-45116750D01*
X111200000Y-45116750D01*
X111200000Y-44226187D01*
X173189752Y-44226187D01*
X173407757Y-44753800D01*
X173811077Y-45157824D01*
X174338309Y-45376750D01*
X174909187Y-45377248D01*
X175436800Y-45159243D01*
X175769623Y-44827000D01*
X177327268Y-44827000D01*
X177318560Y-44870000D01*
X177318560Y-46570000D01*
X177362838Y-46805317D01*
X177501910Y-47021441D01*
X177714110Y-47166431D01*
X177781541Y-47180086D01*
X177736853Y-47209946D01*
X177414946Y-47691715D01*
X177301907Y-48260000D01*
X177414946Y-48828285D01*
X177736853Y-49310054D01*
X178066026Y-49530000D01*
X177736853Y-49749946D01*
X177559750Y-50015000D01*
X175260005Y-50015000D01*
X175260000Y-50014999D01*
X174959594Y-50074755D01*
X174855006Y-50144638D01*
X174625000Y-50098887D01*
X174075849Y-50208120D01*
X173610302Y-50519189D01*
X173299233Y-50984736D01*
X173190000Y-51533887D01*
X173190000Y-51590113D01*
X173299233Y-52139264D01*
X173610302Y-52604811D01*
X174075849Y-52915880D01*
X174625000Y-53025113D01*
X175174151Y-52915880D01*
X175639698Y-52604811D01*
X175950767Y-52139264D01*
X176060000Y-51590113D01*
X176060000Y-51585000D01*
X177559750Y-51585000D01*
X177736853Y-51850054D01*
X178218622Y-52171961D01*
X178786907Y-52285000D01*
X178845093Y-52285000D01*
X179413378Y-52171961D01*
X179895147Y-51850054D01*
X180084345Y-51566899D01*
X180084355Y-51566924D01*
X180474642Y-51995183D01*
X180999108Y-52241486D01*
X181229000Y-52120819D01*
X181229000Y-50927000D01*
X181483000Y-50927000D01*
X181483000Y-52120819D01*
X181712892Y-52241486D01*
X182237358Y-51995183D01*
X182627645Y-51566924D01*
X182797476Y-51156890D01*
X182676155Y-50927000D01*
X181483000Y-50927000D01*
X181229000Y-50927000D01*
X181209000Y-50927000D01*
X181209000Y-50673000D01*
X181229000Y-50673000D01*
X181229000Y-50653000D01*
X181483000Y-50653000D01*
X181483000Y-50673000D01*
X182676155Y-50673000D01*
X182797476Y-50443110D01*
X182627645Y-50033076D01*
X182237358Y-49604817D01*
X182094447Y-49537702D01*
X182435147Y-49310054D01*
X182757054Y-48828285D01*
X182870093Y-48260000D01*
X182757054Y-47691715D01*
X182435147Y-47209946D01*
X182105974Y-46990000D01*
X182435147Y-46770054D01*
X182757054Y-46288285D01*
X182870093Y-45720000D01*
X182757054Y-45151715D01*
X182435147Y-44669946D01*
X182241000Y-44540221D01*
X182241000Y-44323000D01*
X182173633Y-43984325D01*
X181981790Y-43697210D01*
X181981787Y-43697208D01*
X181600790Y-43316210D01*
X181313675Y-43124367D01*
X181257484Y-43113190D01*
X180990353Y-43060053D01*
X181745800Y-42747909D01*
X182445452Y-42049477D01*
X182824568Y-41136466D01*
X182825430Y-40147872D01*
X182447909Y-39234200D01*
X181749477Y-38534548D01*
X180836466Y-38155432D01*
X179847872Y-38154570D01*
X178934200Y-38532091D01*
X178234548Y-39230523D01*
X177855432Y-40143534D01*
X177854570Y-41132128D01*
X178232091Y-42045800D01*
X178930523Y-42745452D01*
X179680812Y-43057000D01*
X175769171Y-43057000D01*
X175438923Y-42726176D01*
X174911691Y-42507250D01*
X174340813Y-42506752D01*
X173813200Y-42724757D01*
X173409176Y-43128077D01*
X173190250Y-43655309D01*
X173189752Y-44226187D01*
X111200000Y-44226187D01*
X111200000Y-41386128D01*
X111941570Y-41386128D01*
X112319091Y-42299800D01*
X113017523Y-42999452D01*
X113930534Y-43378568D01*
X114919128Y-43379430D01*
X115832800Y-43001909D01*
X116532452Y-42303477D01*
X116911568Y-41390466D01*
X116912247Y-40610907D01*
X117895000Y-40610907D01*
X117895000Y-40669093D01*
X118008039Y-41237378D01*
X118329946Y-41719147D01*
X118811715Y-42041054D01*
X119380000Y-42154093D01*
X119948285Y-42041054D01*
X120430054Y-41719147D01*
X120650000Y-41389974D01*
X120869946Y-41719147D01*
X121351715Y-42041054D01*
X121920000Y-42154093D01*
X122488285Y-42041054D01*
X122970054Y-41719147D01*
X123190000Y-41389974D01*
X123409946Y-41719147D01*
X123891715Y-42041054D01*
X124460000Y-42154093D01*
X125028285Y-42041054D01*
X125510054Y-41719147D01*
X125730000Y-41389974D01*
X125949946Y-41719147D01*
X126431715Y-42041054D01*
X127000000Y-42154093D01*
X127568285Y-42041054D01*
X128050054Y-41719147D01*
X128270000Y-41389974D01*
X128489946Y-41719147D01*
X128971715Y-42041054D01*
X129540000Y-42154093D01*
X130108285Y-42041054D01*
X130590054Y-41719147D01*
X130810000Y-41389974D01*
X131029946Y-41719147D01*
X131511715Y-42041054D01*
X132080000Y-42154093D01*
X132648285Y-42041054D01*
X133130054Y-41719147D01*
X133350000Y-41389974D01*
X133569946Y-41719147D01*
X134051715Y-42041054D01*
X134620000Y-42154093D01*
X135188285Y-42041054D01*
X135670054Y-41719147D01*
X135699403Y-41675223D01*
X135771673Y-41849698D01*
X135950301Y-42028327D01*
X136183690Y-42125000D01*
X136874250Y-42125000D01*
X137033000Y-41966250D01*
X137033000Y-40767000D01*
X137287000Y-40767000D01*
X137287000Y-41966250D01*
X137445750Y-42125000D01*
X138136310Y-42125000D01*
X138369699Y-42028327D01*
X138548327Y-41849698D01*
X138645000Y-41616309D01*
X138645000Y-40925750D01*
X138486250Y-40767000D01*
X137287000Y-40767000D01*
X137033000Y-40767000D01*
X137013000Y-40767000D01*
X137013000Y-40610907D01*
X155995000Y-40610907D01*
X155995000Y-40669093D01*
X156108039Y-41237378D01*
X156429946Y-41719147D01*
X156911715Y-42041054D01*
X157480000Y-42154093D01*
X158048285Y-42041054D01*
X158530054Y-41719147D01*
X158750000Y-41389974D01*
X158969946Y-41719147D01*
X159451715Y-42041054D01*
X160020000Y-42154093D01*
X160588285Y-42041054D01*
X161070054Y-41719147D01*
X161290000Y-41389974D01*
X161509946Y-41719147D01*
X161991715Y-42041054D01*
X162560000Y-42154093D01*
X163128285Y-42041054D01*
X163610054Y-41719147D01*
X163830000Y-41389974D01*
X164049946Y-41719147D01*
X164531715Y-42041054D01*
X165100000Y-42154093D01*
X165668285Y-42041054D01*
X166150054Y-41719147D01*
X166370000Y-41389974D01*
X166589946Y-41719147D01*
X167071715Y-42041054D01*
X167640000Y-42154093D01*
X168208285Y-42041054D01*
X168690054Y-41719147D01*
X168910000Y-41389974D01*
X169129946Y-41719147D01*
X169611715Y-42041054D01*
X170180000Y-42154093D01*
X170748285Y-42041054D01*
X171230054Y-41719147D01*
X171450000Y-41389974D01*
X171669946Y-41719147D01*
X172151715Y-42041054D01*
X172720000Y-42154093D01*
X173288285Y-42041054D01*
X173770054Y-41719147D01*
X173799403Y-41675223D01*
X173871673Y-41849698D01*
X174050301Y-42028327D01*
X174283690Y-42125000D01*
X174974250Y-42125000D01*
X175133000Y-41966250D01*
X175133000Y-40767000D01*
X175387000Y-40767000D01*
X175387000Y-41966250D01*
X175545750Y-42125000D01*
X176236310Y-42125000D01*
X176469699Y-42028327D01*
X176648327Y-41849698D01*
X176745000Y-41616309D01*
X176745000Y-40925750D01*
X176586250Y-40767000D01*
X175387000Y-40767000D01*
X175133000Y-40767000D01*
X175113000Y-40767000D01*
X175113000Y-40513000D01*
X175133000Y-40513000D01*
X175133000Y-39313750D01*
X175387000Y-39313750D01*
X175387000Y-40513000D01*
X176586250Y-40513000D01*
X176745000Y-40354250D01*
X176745000Y-39663691D01*
X176648327Y-39430302D01*
X176469699Y-39251673D01*
X176236310Y-39155000D01*
X175545750Y-39155000D01*
X175387000Y-39313750D01*
X175133000Y-39313750D01*
X174974250Y-39155000D01*
X174283690Y-39155000D01*
X174050301Y-39251673D01*
X173871673Y-39430302D01*
X173799403Y-39604777D01*
X173770054Y-39560853D01*
X173288285Y-39238946D01*
X172720000Y-39125907D01*
X172151715Y-39238946D01*
X171669946Y-39560853D01*
X171450000Y-39890026D01*
X171230054Y-39560853D01*
X170748285Y-39238946D01*
X170180000Y-39125907D01*
X169611715Y-39238946D01*
X169129946Y-39560853D01*
X168910000Y-39890026D01*
X168690054Y-39560853D01*
X168208285Y-39238946D01*
X167640000Y-39125907D01*
X167071715Y-39238946D01*
X166589946Y-39560853D01*
X166370000Y-39890026D01*
X166150054Y-39560853D01*
X165668285Y-39238946D01*
X165100000Y-39125907D01*
X164531715Y-39238946D01*
X164049946Y-39560853D01*
X163830000Y-39890026D01*
X163610054Y-39560853D01*
X163128285Y-39238946D01*
X162560000Y-39125907D01*
X161991715Y-39238946D01*
X161509946Y-39560853D01*
X161290000Y-39890026D01*
X161070054Y-39560853D01*
X160588285Y-39238946D01*
X160020000Y-39125907D01*
X159451715Y-39238946D01*
X158969946Y-39560853D01*
X158750000Y-39890026D01*
X158530054Y-39560853D01*
X158048285Y-39238946D01*
X157480000Y-39125907D01*
X156911715Y-39238946D01*
X156429946Y-39560853D01*
X156108039Y-40042622D01*
X155995000Y-40610907D01*
X137013000Y-40610907D01*
X137013000Y-40513000D01*
X137033000Y-40513000D01*
X137033000Y-39313750D01*
X137287000Y-39313750D01*
X137287000Y-40513000D01*
X138486250Y-40513000D01*
X138645000Y-40354250D01*
X138645000Y-39663691D01*
X138548327Y-39430302D01*
X138369699Y-39251673D01*
X138136310Y-39155000D01*
X137445750Y-39155000D01*
X137287000Y-39313750D01*
X137033000Y-39313750D01*
X136874250Y-39155000D01*
X136183690Y-39155000D01*
X135950301Y-39251673D01*
X135771673Y-39430302D01*
X135699403Y-39604777D01*
X135670054Y-39560853D01*
X135188285Y-39238946D01*
X134620000Y-39125907D01*
X134051715Y-39238946D01*
X133569946Y-39560853D01*
X133350000Y-39890026D01*
X133130054Y-39560853D01*
X132648285Y-39238946D01*
X132080000Y-39125907D01*
X131511715Y-39238946D01*
X131029946Y-39560853D01*
X130810000Y-39890026D01*
X130590054Y-39560853D01*
X130108285Y-39238946D01*
X129540000Y-39125907D01*
X128971715Y-39238946D01*
X128489946Y-39560853D01*
X128270000Y-39890026D01*
X128050054Y-39560853D01*
X127568285Y-39238946D01*
X127000000Y-39125907D01*
X126431715Y-39238946D01*
X125949946Y-39560853D01*
X125730000Y-39890026D01*
X125510054Y-39560853D01*
X125028285Y-39238946D01*
X124460000Y-39125907D01*
X123891715Y-39238946D01*
X123409946Y-39560853D01*
X123190000Y-39890026D01*
X122970054Y-39560853D01*
X122488285Y-39238946D01*
X121920000Y-39125907D01*
X121351715Y-39238946D01*
X120869946Y-39560853D01*
X120650000Y-39890026D01*
X120430054Y-39560853D01*
X119948285Y-39238946D01*
X119380000Y-39125907D01*
X118811715Y-39238946D01*
X118329946Y-39560853D01*
X118008039Y-40042622D01*
X117895000Y-40610907D01*
X116912247Y-40610907D01*
X116912430Y-40401872D01*
X116534909Y-39488200D01*
X115836477Y-38788548D01*
X114923466Y-38409432D01*
X113934872Y-38408570D01*
X113021200Y-38786091D01*
X112321548Y-39484523D01*
X111942432Y-40397534D01*
X111941570Y-41386128D01*
X111200000Y-41386128D01*
X111200000Y-37540000D01*
X183440000Y-37540000D01*
X183440000Y-55560448D01*
M02*
