G04 #@! TF.FileFunction,Legend,Bot*
%FSLAX46Y46*%
G04 Gerber Fmt 4.6, Leading zero omitted, Abs format (unit mm)*
G04 Created by KiCad (PCBNEW 4.0.7-e2-6376~58~ubuntu16.04.1) date Thu Feb  1 11:17:09 2018*
%MOMM*%
%LPD*%
G01*
G04 APERTURE LIST*
%ADD10C,0.100000*%
%ADD11C,0.120000*%
%ADD12C,0.150000*%
G04 APERTURE END LIST*
D10*
D11*
X132970000Y-75057000D02*
X132970000Y-77597000D01*
X131190000Y-77597000D02*
X131190000Y-75057000D01*
X131190000Y-77597000D02*
X132970000Y-77597000D01*
X132970000Y-75057000D02*
X131190000Y-75057000D01*
X156973000Y-65786000D02*
X156973000Y-68326000D01*
X155193000Y-68326000D02*
X155193000Y-65786000D01*
X155193000Y-68326000D02*
X156973000Y-68326000D01*
X156973000Y-65786000D02*
X155193000Y-65786000D01*
D12*
X129800000Y-75636524D02*
X129752381Y-75541286D01*
X129752381Y-75398429D01*
X129800000Y-75255571D01*
X129895238Y-75160333D01*
X129990476Y-75112714D01*
X130180952Y-75065095D01*
X130323810Y-75065095D01*
X130514286Y-75112714D01*
X130609524Y-75160333D01*
X130704762Y-75255571D01*
X130752381Y-75398429D01*
X130752381Y-75493667D01*
X130704762Y-75636524D01*
X130657143Y-75684143D01*
X130323810Y-75684143D01*
X130323810Y-75493667D01*
X130704762Y-76065095D02*
X130752381Y-76207952D01*
X130752381Y-76446048D01*
X130704762Y-76541286D01*
X130657143Y-76588905D01*
X130561905Y-76636524D01*
X130466667Y-76636524D01*
X130371429Y-76588905D01*
X130323810Y-76541286D01*
X130276190Y-76446048D01*
X130228571Y-76255571D01*
X130180952Y-76160333D01*
X130133333Y-76112714D01*
X130038095Y-76065095D01*
X129942857Y-76065095D01*
X129847619Y-76112714D01*
X129800000Y-76160333D01*
X129752381Y-76255571D01*
X129752381Y-76493667D01*
X129800000Y-76636524D01*
X130752381Y-77588905D02*
X130752381Y-77017476D01*
X130752381Y-77303190D02*
X129752381Y-77303190D01*
X129895238Y-77207952D01*
X129990476Y-77112714D01*
X130038095Y-77017476D01*
X153803000Y-66365524D02*
X153755381Y-66270286D01*
X153755381Y-66127429D01*
X153803000Y-65984571D01*
X153898238Y-65889333D01*
X153993476Y-65841714D01*
X154183952Y-65794095D01*
X154326810Y-65794095D01*
X154517286Y-65841714D01*
X154612524Y-65889333D01*
X154707762Y-65984571D01*
X154755381Y-66127429D01*
X154755381Y-66222667D01*
X154707762Y-66365524D01*
X154660143Y-66413143D01*
X154326810Y-66413143D01*
X154326810Y-66222667D01*
X154707762Y-66794095D02*
X154755381Y-66936952D01*
X154755381Y-67175048D01*
X154707762Y-67270286D01*
X154660143Y-67317905D01*
X154564905Y-67365524D01*
X154469667Y-67365524D01*
X154374429Y-67317905D01*
X154326810Y-67270286D01*
X154279190Y-67175048D01*
X154231571Y-66984571D01*
X154183952Y-66889333D01*
X154136333Y-66841714D01*
X154041095Y-66794095D01*
X153945857Y-66794095D01*
X153850619Y-66841714D01*
X153803000Y-66889333D01*
X153755381Y-66984571D01*
X153755381Y-67222667D01*
X153803000Y-67365524D01*
X153850619Y-67746476D02*
X153803000Y-67794095D01*
X153755381Y-67889333D01*
X153755381Y-68127429D01*
X153803000Y-68222667D01*
X153850619Y-68270286D01*
X153945857Y-68317905D01*
X154041095Y-68317905D01*
X154183952Y-68270286D01*
X154755381Y-67698857D01*
X154755381Y-68317905D01*
M02*
